<svg width="183" height="36" viewBox="0 0 183 36" fill="none" xmlns="http://www.w3.org/2000/svg">
<path d="M22.1573 25.4167L16.0075 28.098V27.8274C14.8267 28.1226 13.4984 28.2948 12.2684 28.3686C6.46304 28.3194 1.8876 25.2691 1.81381 21.6776V20.3493C3.70794 23.1044 7.5946 24.9739 12.2684 24.9001C13.8428 24.9739 15.4663 24.7279 16.8193 24.3589L17.3605 23.0306C15.7615 23.5225 13.9904 23.8423 12.2684 23.8423C6.46304 23.8423 1.8876 20.8166 1.81381 17.1514V16.069C3.70794 18.6273 7.5946 20.4723 12.2684 20.3493C14.384 20.4723 16.4257 20.0295 18.1722 19.2669L18.4428 17.9385C16.7455 18.8241 14.5562 19.3407 12.293 19.2669C6.48764 19.3407 1.9122 16.315 1.83841 12.5759V11.4936C3.73254 14.1011 7.6192 15.9706 12.293 16.0444C14.9497 15.9706 17.4589 15.2572 19.5252 14.1749L19.7958 12.5759C17.9262 13.9535 15.1957 14.8637 12.293 14.9867C6.48764 14.8637 1.9122 11.8134 1.83841 8.0251C1.8876 4.40902 6.48764 1.38333 12.293 1.33414C15.7369 1.38333 18.9594 2.58869 20.8535 4.55662L21.0503 4.87641H22.4033L22.2065 4.55662C20.3124 1.97372 16.4995 0.276373 12.293 0.276373C5.84806 0.251774 0.731445 3.76945 0.731445 8.0005V8.27109V21.9236C0.952837 26.0563 5.94646 29.4263 12.2438 29.4263C16.4011 29.4509 20.1648 27.8028 22.1573 25.4167Z" fill="#263238"/>
<path d="M19.6484 34.838L21.8131 25.6379L15.5895 28.3438L19.3778 12.4036H12.0964L13.9906 4.55646H37.2367L35.3426 12.4036H27.7661L26.1425 16.733L34.5308 13.2153L19.6484 34.838ZM23.4366 23.7684L22.3543 29.1802L31.2838 15.6753L23.9778 18.9223L27.2249 11.3458H34.5308L35.8838 5.66342H14.7777L13.4248 11.3458H20.7307L17.2131 26.4743L23.4366 23.7684Z" fill="#FABF2C"/>
<path d="M54.15 19.3941V19.4272C54.1831 20.5857 53.819 21.4794 53.0908 22.1413C52.3626 22.8033 51.3697 23.1343 50.0788 23.1343C48.788 23.1343 47.7288 22.704 46.9345 21.8765C46.1401 21.0491 45.7429 19.9568 45.7429 18.6329V16.4815C45.7429 15.1575 46.1401 14.0653 46.9014 13.2378C47.6957 12.4103 48.7218 11.9801 49.9795 11.9801C51.3035 11.9801 52.3295 12.311 53.0908 12.9399C53.8521 13.6019 54.2162 14.4955 54.1831 15.654V15.6871H52.0648C52.0648 14.992 51.8993 14.4625 51.5683 14.1315C51.2373 13.8005 50.7077 13.635 50.0126 13.635C49.3507 13.635 48.8542 13.8998 48.4901 14.4294C48.126 14.9589 47.9274 15.6209 47.9274 16.4484V18.6329C47.9274 19.4603 48.126 20.1554 48.4901 20.685C48.8873 21.2146 49.4169 21.4794 50.1119 21.4794C50.7739 21.4794 51.2373 21.3139 51.5683 20.9829C51.8993 20.6519 52.0648 20.1223 52.0648 19.4272H54.15V19.3941ZM66.1317 18.5336C66.1317 19.8575 65.7014 20.9829 64.8739 21.8434C64.0464 22.704 62.9542 23.1343 61.5972 23.1343C60.2401 23.1343 59.181 22.704 58.3204 21.8434C57.4929 20.9829 57.0626 19.8575 57.0626 18.5336V16.5808C57.0626 15.2568 57.4929 14.1646 58.3204 13.2709C59.1479 12.4103 60.2401 11.947 61.5641 11.947C62.9211 11.947 64.0133 12.3772 64.8408 13.2709C65.7014 14.1315 66.0986 15.2568 66.0986 16.5808V18.5336H66.1317ZM63.9472 16.5477C63.9472 15.6871 63.7486 15.0251 63.3183 14.4625C62.888 13.9329 62.3253 13.635 61.5641 13.635C60.8359 13.635 60.2401 13.8998 59.8429 14.4625C59.4457 14.992 59.2141 15.6871 59.2141 16.5477V18.5005C59.2141 19.361 59.4126 20.0561 59.8429 20.6188C60.2401 21.1484 60.8359 21.4463 61.5641 21.4463C62.3253 21.4463 62.888 21.1815 63.3183 20.6188C63.7486 20.0892 63.9472 19.361 63.9472 18.5005V16.5477ZM71.7584 22.9688H69.5739V12.1125H71.7584V22.9688ZM84.3028 22.9688H82.1183L77.7493 15.654H77.7162V22.9688H75.5317V12.1125H77.7162L82.0852 19.4272H82.1183V12.1125H84.3028V22.9688ZM95.2584 13.8005H92.1472V22.9688H89.9627V13.8005H86.9176V12.1125H95.2584V13.8005ZM104.261 18.2026H100.223V21.3139H105.023V22.9688H98.0718V12.1125H105.023V13.8005H100.256V16.5146H104.294V18.2026H104.261ZM110.318 21.3139H115.184V22.9688H108.134V12.1125H110.318V21.3139ZM124.451 18.2026H120.413V21.3139H125.213V22.9688H118.262V12.1125H125.213V13.8005H120.446V16.5146H124.484V18.2026H124.451ZM136.665 21.5125C136.334 21.9427 135.837 22.3399 135.142 22.6709C134.48 23.0019 133.62 23.1674 132.561 23.1674C131.237 23.1674 130.177 22.7702 129.35 21.9427C128.523 21.1153 128.092 20.0561 128.092 18.7322V16.4484C128.092 15.1244 128.489 14.0653 129.317 13.2378C130.111 12.4103 131.17 11.9801 132.428 11.9801C133.752 11.9801 134.778 12.311 135.473 12.9399C136.168 13.5688 136.532 14.3963 136.499 15.4554V15.4885H134.447C134.447 14.9258 134.282 14.4625 133.951 14.1315C133.62 13.8005 133.123 13.635 132.494 13.635C131.832 13.635 131.303 13.8998 130.873 14.3963C130.475 14.9258 130.277 15.5878 130.277 16.3822V18.666C130.277 19.4934 130.475 20.1554 130.906 20.685C131.336 21.2146 131.899 21.4463 132.594 21.4463C133.123 21.4463 133.52 21.3801 133.818 21.2808C134.116 21.1815 134.348 21.0491 134.513 20.8836V18.7653H132.428V17.2427H136.698V21.5125H136.665ZM142.292 18.6329V22.9688H140.107V12.1125H143.88C145.105 12.1125 146.098 12.4103 146.793 12.973C147.488 13.5357 147.852 14.3301 147.852 15.323C147.852 15.8857 147.72 16.3491 147.422 16.7794C147.124 17.1765 146.694 17.5075 146.131 17.7723C146.76 17.9709 147.223 18.2688 147.521 18.7322C147.786 19.1625 147.951 19.7251 147.951 20.3871V21.1815C147.951 21.4794 147.985 21.8103 148.084 22.1413C148.15 22.4723 148.315 22.704 148.514 22.8695V23.035H146.263C146.065 22.8695 145.932 22.6047 145.866 22.2406C145.8 21.8765 145.767 21.5125 145.767 21.1815V20.4202C145.767 19.8906 145.635 19.4603 145.337 19.1625C145.039 18.8646 144.608 18.6991 144.079 18.6991H142.292V18.6329ZM142.292 16.9779H143.847C144.443 16.9779 144.906 16.8456 145.204 16.5808C145.502 16.316 145.668 15.9519 145.668 15.4223C145.668 14.9258 145.502 14.5286 145.204 14.2308C144.906 13.9329 144.476 13.8005 143.88 13.8005H142.292V16.9779ZM157.087 20.6519H153.578L152.85 23.0019H150.566L154.24 12.1456H156.458L160.099 23.0019H157.815L157.087 20.6519ZM154.108 18.9308H156.557L155.365 15.0913H155.332L154.108 18.9308ZM164.931 19.0301V22.9688H162.746V12.1125H166.917C168.175 12.1125 169.135 12.4434 169.863 13.0723C170.591 13.7012 170.922 14.5618 170.922 15.5878C170.922 16.6139 170.558 17.4744 169.863 18.1033C169.135 18.7322 168.175 19.0632 166.917 19.0632H164.931V19.0301ZM164.931 17.3751H166.917C167.513 17.3751 167.976 17.2096 168.307 16.8787C168.605 16.5477 168.77 16.1174 168.77 15.6209C168.77 15.0913 168.605 14.661 168.307 14.3301C168.009 13.9991 167.546 13.8336 166.917 13.8336H164.931V17.3751ZM182.87 22.9688H180.686V18.4674H176.251V22.9688H174.066V12.1125H176.251V16.7794H180.686V12.1125H182.87V22.9688Z" fill="#263238"/>
</svg>
