<svg width="413" height="103" viewBox="0 0 413 103" fill="none" xmlns="http://www.w3.org/2000/svg">
<path d="M294.144 9.84473C293.739 10.2194 293.426 10.6833 293.23 11.1998C293.035 11.7162 292.962 12.2711 293.018 12.8205C294.966 13.0596 296.831 13.7479 298.467 14.8311C298.602 13.6993 299.146 12.6556 299.995 11.8956C298.209 10.8114 296.216 10.1128 294.144 9.84473Z" fill="#88DF81"/>
<path d="M351.652 71.6566C352.747 72.7344 354.155 73.4382 355.674 73.6672C356.563 73.0195 357.546 72.511 358.589 72.1593C357.624 71.6365 357.363 70.9529 357.282 69.4248C355.538 70.4678 353.637 71.2215 351.652 71.6566Z" fill="url(#paint0_linear_2776_188733)"/>
<path d="M345.027 10.9493C345.82 11.7787 346.785 12.424 347.854 12.8399C348.923 13.2558 350.07 13.4321 351.215 13.3563C352.939 9.94172 355.058 6.74165 357.529 3.82201C356.339 3.46195 355.264 2.79909 354.407 1.89833C351.746 5.36313 348.585 8.41343 345.027 10.9493Z" fill="url(#paint1_linear_2776_188733)"/>
<path d="M50.9621 18.9579C51.2923 18.3493 51.7511 17.82 52.3067 17.4068C52.8623 16.9936 53.5012 16.7064 54.1791 16.5653C52.2207 13.3785 49.8096 10.4932 47.0213 8C45.439 8.57493 44.0471 9.57713 43 10.8953C46.3132 12.8406 49.0585 15.6206 50.9621 18.9579Z" fill="#88DF81"/>
<path d="M412.454 55.3008C410.569 53.1934 409.12 50.7332 408.192 48.0625C406.76 48.4843 405.509 49.368 404.633 50.5758C405.516 53.3296 406.826 55.928 408.513 58.2765C409.659 56.2056 410.665 55.341 412.454 55.3008Z" fill="url(#paint2_linear_2776_188733)"/>
<path d="M69.2118 61.4879C68.7385 63.8715 69.0635 66.3447 70.1367 68.5251C72.3062 67.1819 74.8542 66.5819 77.3951 66.816C77.9171 64.5803 77.9855 62.2626 77.5961 60C74.9254 61.0389 72.0769 61.5443 69.2118 61.4879Z" fill="#4E8FFF"/>
<path d="M46.6448 97C45.6283 98.3152 45.0501 99.9494 45 101.649C46.6811 101.546 48.3486 102.02 49.7559 103C50.7645 101.795 51.5284 100.383 52 98.8514C50.1189 98.6065 48.3003 97.9778 46.6448 97Z" fill="#89DF81"/>
<path d="M10.7167 68.7368C11.3681 67.7949 11.8048 66.7215 11.9959 65.5924C12.187 64.4633 12.1278 63.306 11.8225 62.2022C8.14934 61.2262 4.6057 59.8155 1.2667 58C1.14811 59.2361 0.711742 60.4206 0 61.4382C3.92193 63.313 7.53556 65.7741 10.7167 68.7368Z" fill="url(#paint3_linear_2776_188733)"/>
<defs>
<linearGradient id="paint0_linear_2776_188733" x1="2409.43" y1="2023.05" x2="2412.73" y2="2032.45" gradientUnits="userSpaceOnUse">
<stop stop-color="#FF3EB9"/>
<stop offset="0.04" stop-color="#FF44BC"/>
<stop offset="0.7" stop-color="#FF98E3"/>
<stop offset="1" stop-color="#FFB9F2"/>
</linearGradient>
<linearGradient id="paint1_linear_2776_188733" x1="-9329.26" y1="15088.3" x2="-9370.24" y2="15070.1" gradientUnits="userSpaceOnUse">
<stop stop-color="#4D8EFF"/>
<stop offset="0.43" stop-color="#3F76FF"/>
<stop offset="1" stop-color="#2850FF"/>
</linearGradient>
<linearGradient id="paint2_linear_2776_188733" x1="28543.3" y1="29000.7" x2="28521.7" y2="29012.1" gradientUnits="userSpaceOnUse">
<stop stop-color="#FF3EB9"/>
<stop offset="0.04" stop-color="#FF44BC"/>
<stop offset="0.7" stop-color="#FF98E3"/>
<stop offset="1" stop-color="#FFB9F2"/>
</linearGradient>
<linearGradient id="paint3_linear_2776_188733" x1="25501.5" y1="43505.2" x2="25487.8" y2="43541.8" gradientUnits="userSpaceOnUse">
<stop stop-color="#FF5C5C"/>
<stop offset="0.3" stop-color="#F44444"/>
<stop offset="0.93" stop-color="#D60707"/>
<stop offset="1" stop-color="#D30000"/>
</linearGradient>
</defs>
</svg>
