<svg width="40" height="40" viewBox="0 0 40 40" fill="none" xmlns="http://www.w3.org/2000/svg">
<path fill-rule="evenodd" clip-rule="evenodd" d="M24.7661 10.9395L23.1903 6.40589C22.1526 3.42069 17.9308 3.42069 16.8931 6.40589L15.3173 10.9395C14.8595 12.2564 13.6305 13.1493 12.2366 13.1777L7.43797 13.2755C4.27822 13.3399 2.97362 17.355 5.49206 19.2643L9.31679 22.1642C10.4278 23.0063 10.8972 24.4512 10.4935 25.7857L9.10362 30.3797C8.18844 33.4047 11.6039 35.8862 14.1981 34.081L18.1378 31.3395C19.2821 30.5432 20.8013 30.5432 21.9456 31.3395L25.8853 34.081C28.4795 35.8862 31.895 33.4047 30.9798 30.3797L29.59 25.7857C29.1861 24.4512 29.6556 23.0063 30.7666 22.1642L34.5913 19.2643C37.1098 17.355 35.8051 13.3399 32.6455 13.2755L27.8468 13.1777C26.4528 13.1493 25.224 12.2564 24.7661 10.9395ZM26.7185 26.6546L28.1083 31.2484L30.9798 30.3797L28.1083 31.2484C28.1468 31.3756 28.1278 31.4289 28.1196 31.4509C28.1042 31.4929 28.0638 31.5575 27.9852 31.6146C27.9066 31.6717 27.8327 31.6901 27.788 31.6919C27.7645 31.6928 27.7079 31.6944 27.5989 31.6185C27.5988 31.6185 27.5988 31.6185 27.5988 31.6185L23.6592 28.8771M26.7185 26.6546C25.9513 24.1191 26.8432 21.3739 28.9541 19.7736C28.9542 19.7735 28.9543 19.7735 28.9544 19.7734L32.7788 16.8738L32.7789 16.8737C32.8848 16.7934 32.9007 16.7391 32.9071 16.7165C32.9192 16.6735 32.9245 16.5975 32.8945 16.5051C32.8645 16.4127 32.8155 16.3544 32.7804 16.3267C32.762 16.3122 32.7172 16.2776 32.5843 16.2749L27.7857 16.1771C25.137 16.1231 22.8023 14.4265 21.9325 11.9246L21.9324 11.9245L20.3566 7.39089C20.3566 7.39088 20.3566 7.39087 20.3566 7.39086C20.313 7.26534 20.2662 7.23345 20.2467 7.2204C20.2095 7.19553 20.1389 7.16699 20.0417 7.16699C19.9445 7.16699 19.8739 7.19553 19.8367 7.2204C19.8172 7.23345 19.7705 7.26535 19.7268 7.39087C19.7268 7.39087 19.7268 7.39088 19.7268 7.39089L18.151 11.9245L18.151 11.9245C17.2812 14.4266 14.9462 16.1231 12.2978 16.1771C12.2978 16.1771 12.2978 16.1771 12.2978 16.1771L7.49909 16.2749C7.36619 16.2776 7.32142 16.3122 7.30298 16.3267C7.26784 16.3544 7.21889 16.4127 7.18886 16.5051C7.15883 16.5975 7.16415 16.6735 7.17631 16.7165C7.18269 16.7391 7.19858 16.7934 7.30449 16.8737L7.30455 16.8737L11.129 19.7734C11.1291 19.7735 11.1292 19.7735 11.1293 19.7736C13.2403 21.374 14.1319 24.1191 13.365 26.6543L13.365 26.6544L11.9751 31.2484C11.9366 31.3756 11.9557 31.4289 11.9638 31.4509C11.9792 31.4929 12.0196 31.5575 12.0982 31.6146C12.1768 31.6717 12.2507 31.6901 12.2954 31.6919C12.3189 31.6928 12.3754 31.6944 12.4845 31.6185L16.4242 28.8771C16.4242 28.877 16.4242 28.877 16.4242 28.877C18.5985 27.364 21.4849 27.364 23.6592 28.877" fill="#1D354F"/>
</svg>
