<svg width="40" height="40" viewBox="0 0 40 40" fill="none" xmlns="http://www.w3.org/2000/svg">
<path d="M11.477 8.01562L13.738 10.6536L15.3653 12.6888C15.5197 12.8818 15.597 13.1251 15.5826 13.3718L15.4629 15.4144C15.436 15.8738 15.099 16.2555 14.6465 16.3392L12.0331 16.8227C11.8061 16.8647 11.6006 16.9839 11.4515 17.1602L9.46898 19.5043C9.21415 19.8056 9.16034 20.2286 9.3316 20.5841L10.277 22.5466L11.3625 24.4913C11.4282 24.609 11.517 24.7121 11.6235 24.7946L13.5233 26.2654C13.9367 26.5854 14.0338 27.1698 13.7462 27.6064L12.5891 29.3622C12.4827 29.5237 12.3317 29.6508 12.1546 29.7283L9.97105 30.6826" stroke="#1D354F" stroke-width="3" stroke-miterlimit="10"/>
<path d="M32.559 11.0774L30.5861 12.3306C30.4228 12.4342 30.2331 12.4884 30.0397 12.4864L27.6881 12.4624C27.5579 12.4611 27.4288 12.4852 27.3078 12.5334L25.8242 13.1243C25.5136 13.2481 25.1616 13.2083 24.8864 13.0185L23.7158 12.211C23.5197 12.0757 23.3784 11.8749 23.3172 11.6446L22.8326 9.82063C22.7896 9.65843 22.7063 9.50967 22.5906 9.38808L21.0501 7.76887C21.0061 7.72267 20.9578 7.68077 20.9059 7.64376L19.5129 6.65123C19.2584 6.46989 19.1033 6.18 19.0937 5.86765L19.069 5.06641" stroke="#1D354F" stroke-width="3" stroke-miterlimit="10"/>
<path d="M29.9347 20.9074C30.097 21.1142 30.1714 21.3767 30.1417 21.6379L29.92 23.587C29.8947 23.8087 29.7961 24.0157 29.6397 24.1748L27.971 25.8732L26.3446 27.7119C26.3004 27.762 26.2512 27.8075 26.1978 27.8477L24.438 29.1752C24.3201 29.2641 24.1841 29.3258 24.0397 29.3559L22.3895 29.6996C21.9416 29.7929 21.4876 29.5703 21.2869 29.1592L20.4269 27.397C20.2971 27.1309 20.2918 26.821 20.4125 26.5507L21.3693 24.4082C21.4654 24.1931 21.4824 23.9511 21.4175 23.7247L20.7849 21.5193C20.7253 21.3115 20.7346 21.09 20.8115 20.8879L21.6783 18.61C21.8024 18.2841 22.0873 18.0463 22.4301 17.9825L24.9974 17.5052C25.1902 17.4693 25.3894 17.491 25.57 17.5674L27.9425 18.5717C28.0983 18.6376 28.2348 18.742 28.3393 18.8751L29.9347 20.9074Z" stroke="#1D354F" stroke-width="3" stroke-miterlimit="10" stroke-linecap="square"/>
<path d="M20.5 35C28.7843 35 35.5 28.2843 35.5 20C35.5 11.7157 28.7843 5 20.5 5C12.2157 5 5.5 11.7157 5.5 20C5.5 28.2843 12.2157 35 20.5 35Z" stroke="#1D354F" stroke-width="3" stroke-miterlimit="10" stroke-linecap="square"/>
</svg>
