<svg width="40" height="40" viewBox="0 0 40 40" fill="none" xmlns="http://www.w3.org/2000/svg">
<path fill-rule="evenodd" clip-rule="evenodd" d="M25 13.3333H15C14.0795 13.3333 13.3333 14.0795 13.3333 15V25C13.3333 25.9205 14.0795 26.6667 15 26.6667H25C25.9205 26.6667 26.6667 25.9205 26.6667 25V15C26.6667 14.0795 25.9205 13.3333 25 13.3333ZM15 10C12.2386 10 10 12.2386 10 15V25C10 27.7615 12.2386 30 15 30H25C27.7615 30 30 27.7615 30 25V15C30 12.2386 27.7615 10 25 10H15Z" fill="#1D354F"/>
<path fill-rule="evenodd" clip-rule="evenodd" d="M3.33325 26.6667C3.33325 25.7462 4.07945 25 4.99992 25H6.66658C7.58705 25 8.33325 25.7462 8.33325 26.6667C8.33325 27.5872 7.58705 28.3333 6.66658 28.3333H4.99992C4.07945 28.3333 3.33325 27.5872 3.33325 26.6667Z" fill="#1D354F"/>
<path fill-rule="evenodd" clip-rule="evenodd" d="M31.6667 26.6667C31.6667 25.7462 32.4129 25 33.3334 25H35.0001C35.9206 25 36.6667 25.7462 36.6667 26.6667C36.6667 27.5872 35.9206 28.3333 35.0001 28.3333H33.3334C32.4129 28.3333 31.6667 27.5872 31.6667 26.6667Z" fill="#1D354F"/>
<path fill-rule="evenodd" clip-rule="evenodd" d="M3.33325 19.9997C3.33325 19.0792 4.07945 18.333 4.99992 18.333H6.66658C7.58705 18.333 8.33325 19.0792 8.33325 19.9997C8.33325 20.9202 7.58705 21.6663 6.66658 21.6663H4.99992C4.07945 21.6663 3.33325 20.9202 3.33325 19.9997Z" fill="#1D354F"/>
<path fill-rule="evenodd" clip-rule="evenodd" d="M31.6667 19.9997C31.6667 19.0792 32.4129 18.333 33.3334 18.333H35.0001C35.9206 18.333 36.6667 19.0792 36.6667 19.9997C36.6667 20.9202 35.9206 21.6663 35.0001 21.6663H33.3334C32.4129 21.6663 31.6667 20.9202 31.6667 19.9997Z" fill="#1D354F"/>
<path fill-rule="evenodd" clip-rule="evenodd" d="M3.33325 13.3337C3.33325 12.4132 4.07945 11.667 4.99992 11.667H6.66658C7.58705 11.667 8.33325 12.4132 8.33325 13.3337C8.33325 14.2541 7.58705 15.0003 6.66658 15.0003H4.99992C4.07945 15.0003 3.33325 14.2541 3.33325 13.3337Z" fill="#1D354F"/>
<path fill-rule="evenodd" clip-rule="evenodd" d="M31.6667 13.3337C31.6667 12.4132 32.4129 11.667 33.3334 11.667H35.0001C35.9206 11.667 36.6667 12.4132 36.6667 13.3337C36.6667 14.2541 35.9206 15.0003 35.0001 15.0003H33.3334C32.4129 15.0003 31.6667 14.2541 31.6667 13.3337Z" fill="#1D354F"/>
<path fill-rule="evenodd" clip-rule="evenodd" d="M26.6667 3.33301C27.5872 3.33301 28.3333 4.07921 28.3333 4.99967V6.66634C28.3333 7.58681 27.5872 8.33301 26.6667 8.33301C25.7462 8.33301 25 7.58681 25 6.66634V4.99967C25 4.07921 25.7462 3.33301 26.6667 3.33301Z" fill="#1D354F"/>
<path fill-rule="evenodd" clip-rule="evenodd" d="M26.6667 31.667C27.5872 31.667 28.3333 32.4132 28.3333 33.3337V35.0003C28.3333 35.9208 27.5872 36.667 26.6667 36.667C25.7462 36.667 25 35.9208 25 35.0003V33.3337C25 32.4132 25.7462 31.667 26.6667 31.667Z" fill="#1D354F"/>
<path fill-rule="evenodd" clip-rule="evenodd" d="M19.9999 3.33301C20.9204 3.33301 21.6666 4.07921 21.6666 4.99967V6.66634C21.6666 7.58681 20.9204 8.33301 19.9999 8.33301C19.0794 8.33301 18.3333 7.58681 18.3333 6.66634V4.99967C18.3333 4.07921 19.0794 3.33301 19.9999 3.33301Z" fill="#1D354F"/>
<path fill-rule="evenodd" clip-rule="evenodd" d="M19.9999 31.667C20.9204 31.667 21.6666 32.4132 21.6666 33.3337V35.0003C21.6666 35.9208 20.9204 36.667 19.9999 36.667C19.0794 36.667 18.3333 35.9208 18.3333 35.0003V33.3337C18.3333 32.4132 19.0794 31.667 19.9999 31.667Z" fill="#1D354F"/>
<path fill-rule="evenodd" clip-rule="evenodd" d="M13.3334 3.33301C14.2539 3.33301 15.0001 4.07921 15.0001 4.99967V6.66634C15.0001 7.58681 14.2539 8.33301 13.3334 8.33301C12.4129 8.33301 11.6667 7.58681 11.6667 6.66634V4.99967C11.6667 4.07921 12.4129 3.33301 13.3334 3.33301Z" fill="#1D354F"/>
<path fill-rule="evenodd" clip-rule="evenodd" d="M13.3334 31.667C14.2539 31.667 15.0001 32.4132 15.0001 33.3337V35.0003C15.0001 35.9208 14.2539 36.667 13.3334 36.667C12.4129 36.667 11.6667 35.9208 11.6667 35.0003V33.3337C11.6667 32.4132 12.4129 31.667 13.3334 31.667Z" fill="#1D354F"/>
</svg>
