<svg width="944" height="472" viewBox="0 0 944 472" fill="none" xmlns="http://www.w3.org/2000/svg">
<path d="M465.007 238.596C457.143 238.596 450.749 232.198 450.749 224.337C450.749 216.473 457.146 210.079 465.007 210.079C472.871 210.079 479.268 216.477 479.268 224.337C479.268 232.201 472.871 238.596 465.007 238.596ZM465.007 213.119C458.82 213.119 453.788 218.151 453.788 224.337C453.788 230.524 458.82 235.556 465.007 235.556C471.193 235.556 476.228 230.524 476.228 224.337C476.228 218.151 471.193 213.119 465.007 213.119Z" fill="#F1EFFB"/>
<path d="M465.007 250.091C450.805 250.091 439.253 238.536 439.253 224.338C439.253 210.136 450.808 198.584 465.007 198.584C479.208 198.584 490.76 210.139 490.76 224.338C490.76 238.539 479.208 250.091 465.007 250.091ZM465.007 201.624C452.482 201.624 442.293 211.813 442.293 224.338C442.293 236.862 452.482 247.051 465.007 247.051C477.531 247.051 487.721 236.862 487.721 224.338C487.721 211.813 477.531 201.624 465.007 201.624Z" fill="#F1EFFB"/>
<path d="M465.007 261.586C444.467 261.586 427.758 244.877 427.758 224.337C427.758 203.798 444.467 187.088 465.007 187.088C485.546 187.088 502.256 203.798 502.256 224.337C502.256 244.877 485.546 261.586 465.007 261.586ZM465.007 190.128C446.145 190.128 430.798 205.475 430.798 224.337C430.798 243.199 446.145 258.547 465.007 258.547C483.869 258.547 499.216 243.199 499.216 224.337C499.216 205.475 483.872 190.128 465.007 190.128Z" fill="#F1EFFB"/>
<path d="M472.295 272.525C471.558 272.525 470.91 271.99 470.794 271.238C470.665 270.407 471.234 269.633 472.062 269.504C494.455 266.033 510.708 247.039 510.708 224.341C510.708 199.138 490.206 178.636 465.004 178.636C439.801 178.636 419.299 199.141 419.299 224.341C419.299 244.767 433.022 262.87 452.671 268.362C453.48 268.588 453.952 269.425 453.725 270.234C453.499 271.043 452.658 271.515 451.853 271.288C430.895 265.429 416.259 246.123 416.259 224.338C416.259 197.461 438.126 175.593 465.004 175.593C491.881 175.593 513.748 197.461 513.748 224.338C513.748 248.546 496.412 268.805 472.528 272.506C472.452 272.519 472.373 272.525 472.295 272.525Z" fill="#F1EFFB"/>
<path d="M435.858 174.872C435.332 174.872 434.819 174.599 434.536 174.108C434.118 173.381 434.373 172.449 435.099 172.034C444.162 166.842 454.503 164.098 465.004 164.098C473.67 164.098 482.038 165.901 489.87 169.454C490.635 169.8 490.971 170.703 490.625 171.464C490.279 172.229 489.376 172.566 488.611 172.22C481.175 168.846 473.233 167.134 465.001 167.134C455.028 167.134 445.21 169.74 436.607 174.668C436.374 174.806 436.116 174.872 435.858 174.872Z" fill="#F1EFFB"/>
<path d="M416.864 259.484C416.385 259.484 415.913 259.258 415.618 258.836C410.476 251.492 406.998 242.942 405.557 234.115C405.422 233.287 405.985 232.507 406.813 232.371C407.644 232.233 408.421 232.799 408.559 233.627C409.947 242.123 413.16 250.019 418.11 257.093C418.591 257.782 418.425 258.729 417.735 259.211C417.468 259.396 417.166 259.484 416.864 259.484Z" fill="#F1EFFB"/>
<path d="M485.071 281.062C484.451 281.062 483.865 280.678 483.642 280.061C483.356 279.271 483.762 278.4 484.552 278.113C507.076 269.925 522.21 248.316 522.21 224.337C522.21 213.446 519.138 202.854 513.326 193.706C512.876 192.998 513.087 192.057 513.795 191.607C514.503 191.157 515.444 191.365 515.894 192.076C522.014 201.712 525.249 212.867 525.249 224.337C525.249 249.587 509.311 272.348 485.59 280.971C485.417 281.034 485.241 281.062 485.071 281.062Z" fill="#F1EFFB"/>
<path d="M480.807 294.288C480.115 294.288 479.489 293.813 479.328 293.108C479.139 292.29 479.652 291.475 480.47 291.286C511.816 284.08 533.708 256.548 533.708 224.337C533.708 186.459 502.892 155.642 465.013 155.642C452.095 155.642 439.511 159.245 428.617 166.064C427.906 166.511 426.968 166.294 426.521 165.583C426.074 164.872 426.291 163.934 427.003 163.487C438.382 156.366 451.526 152.599 465.013 152.599C504.569 152.599 536.748 184.779 536.748 224.334C536.748 240.66 531.115 256.636 520.891 269.321C510.818 281.82 496.705 290.672 481.153 294.247C481.034 294.276 480.92 294.288 480.807 294.288Z" fill="#F1EFFB"/>
<path d="M489.307 303.895C488.659 303.895 488.057 303.477 487.856 302.825C487.607 302.023 488.054 301.173 488.857 300.921C522.559 290.439 545.201 259.663 545.201 224.337C545.201 180.118 509.226 144.146 465.01 144.146C453.663 144.146 442.696 146.469 432.415 151.047C431.647 151.39 430.751 151.044 430.408 150.277C430.065 149.509 430.411 148.612 431.179 148.269C441.849 143.514 453.235 141.104 465.01 141.104C510.903 141.104 548.241 178.441 548.241 224.334C548.241 242.447 542.523 259.666 531.704 274.132C521.244 288.117 506.347 298.662 489.757 303.823C489.606 303.873 489.455 303.895 489.307 303.895Z" fill="#F1EFFB"/>
<path d="M491.56 315.227C490.905 315.227 490.298 314.799 490.103 314.138C489.864 313.333 490.323 312.486 491.129 312.247C529.734 300.796 556.696 264.645 556.696 224.334C556.696 173.777 515.567 132.648 465.01 132.648C457.908 132.648 450.834 133.463 443.983 135.071C443.171 135.26 442.35 134.757 442.155 133.938C441.963 133.12 442.469 132.302 443.288 132.11C450.365 130.449 457.675 129.608 465.01 129.608C517.241 129.608 559.736 172.103 559.736 224.334C559.736 245.166 553.102 264.935 540.553 281.493C528.409 297.517 511.165 309.472 491.994 315.161C491.846 315.208 491.702 315.227 491.56 315.227Z" fill="#F1EFFB"/>
<path d="M491.182 327.261C490.506 327.261 489.889 326.804 489.709 326.118C489.502 325.306 489.99 324.476 490.801 324.268C536.364 312.54 568.185 271.449 568.185 224.337C568.185 167.443 521.898 121.156 465.004 121.156C452.904 121.156 441.06 123.23 429.791 127.321C429.004 127.607 428.129 127.198 427.843 126.411C427.557 125.621 427.966 124.75 428.752 124.463C440.352 120.253 452.549 118.116 465.001 118.116C523.569 118.116 571.222 165.765 571.222 224.337C571.222 272.836 538.46 315.139 491.554 327.213C491.434 327.245 491.308 327.261 491.182 327.261Z" fill="#F1EFFB"/>
<path d="M488.423 339.694C487.715 339.694 487.082 339.197 486.934 338.479C486.767 337.658 487.296 336.852 488.117 336.685C541.173 325.829 579.681 278.582 579.681 224.34C579.681 161.108 528.236 109.664 465.004 109.664C452.435 109.664 440.081 111.684 428.287 115.668C427.491 115.939 426.628 115.511 426.361 114.715C426.093 113.918 426.518 113.056 427.314 112.789C439.423 108.698 452.105 106.624 465.004 106.624C529.914 106.624 582.72 159.431 582.72 224.34C582.72 280.02 543.19 328.519 488.725 339.665C488.627 339.684 488.523 339.694 488.423 339.694Z" fill="#F1EFFB"/>
<path d="M490.742 350.953C490.034 350.953 489.401 350.456 489.253 349.739C489.086 348.917 489.615 348.112 490.436 347.945C548.81 335.999 591.179 284.014 591.179 224.338C591.179 156.19 537.872 100.809 469.821 98.2567C468.984 98.2253 468.33 97.5204 468.361 96.6802C468.393 95.8431 469.063 95.2075 469.938 95.2169C503.408 96.4725 534.674 110.46 557.983 134.606C581.351 158.814 594.219 190.679 594.219 224.334C594.219 285.449 550.83 338.687 491.047 350.922C490.943 350.944 490.842 350.953 490.742 350.953Z" fill="#F1EFFB"/>
<path d="M362.666 320.196C362.257 320.196 361.848 320.032 361.549 319.705C355.507 313.153 350.066 306.001 345.374 298.442C344.93 297.728 345.151 296.793 345.865 296.349C346.579 295.906 347.514 296.126 347.958 296.84C352.549 304.235 357.873 311.234 363.786 317.644C364.356 318.261 364.318 319.224 363.698 319.79C363.405 320.061 363.034 320.196 362.666 320.196Z" fill="#F1EFFB"/>
<path d="M496.113 361.554C495.421 361.554 494.792 361.076 494.634 360.374C494.449 359.556 494.958 358.741 495.777 358.555C522.503 352.454 546.601 338.595 565.463 318.471C566.039 317.858 566.999 317.832 567.612 318.402C568.223 318.978 568.254 319.938 567.682 320.551C548.401 341.116 523.774 355.283 496.453 361.517C496.34 361.542 496.227 361.554 496.113 361.554Z" fill="#F1EFFB"/>
<path d="M603.662 238.13C603.618 238.13 603.574 238.127 603.527 238.124C602.69 238.051 602.073 237.312 602.146 236.478C602.495 232.462 602.674 228.378 602.674 224.337C602.674 152.259 546.412 91.9346 474.586 86.9973C473.749 86.9406 473.116 86.2137 473.173 85.3767C473.229 84.5396 473.966 83.9039 474.793 83.9637C510.283 86.4025 543.275 102.086 567.685 128.126C592.208 154.289 605.714 188.457 605.714 224.334C605.714 228.463 605.532 232.639 605.173 236.742C605.104 237.535 604.443 238.13 603.662 238.13Z" fill="#F1EFFB"/>
<path d="M498.625 372.774C497.932 372.774 497.306 372.295 497.142 371.59C496.957 370.772 497.47 369.957 498.288 369.771C524.054 363.899 547.898 351.167 567.247 332.947C567.858 332.371 568.821 332.4 569.397 333.01C569.973 333.621 569.944 334.584 569.334 335.159C549.591 353.751 525.259 366.744 498.968 372.736C498.851 372.764 498.738 372.774 498.625 372.774Z" fill="#F1EFFB"/>
<path d="M615.671 228.221C615.664 228.221 615.655 228.221 615.649 228.221C614.808 228.208 614.138 227.516 614.151 226.679C614.163 225.901 614.17 225.118 614.17 224.337C614.17 150.752 561.536 88.8287 489.014 77.0974C488.186 76.962 487.623 76.1816 487.755 75.354C487.887 74.5264 488.674 73.9631 489.499 74.0953C524.775 79.8036 557.096 97.9577 580.508 125.215C604.175 152.766 617.206 187.969 617.206 224.337C617.206 225.134 617.2 225.93 617.187 226.723C617.178 227.557 616.501 228.221 615.671 228.221Z" fill="#F1EFFB"/>
<path d="M398.741 90.4937C398.181 90.4937 397.64 90.1822 397.375 89.6441C397.007 88.892 397.315 87.9794 398.071 87.6112C403.984 84.7098 410.145 82.1735 416.379 80.0746C417.175 79.8039 418.037 80.235 418.305 81.028C418.572 81.8242 418.144 82.6864 417.351 82.9539C411.243 85.0119 405.208 87.4979 399.411 90.3395C399.194 90.4434 398.964 90.4937 398.741 90.4937Z" fill="#F1EFFB"/>
<path d="M355.242 329.089C354.836 329.089 354.434 328.929 354.135 328.611C343.933 317.77 335.398 305.542 328.768 292.271C328.394 291.523 328.699 290.607 329.448 290.232C330.197 289.858 331.112 290.163 331.487 290.912C337.985 303.918 346.349 315.901 356.347 326.525C356.923 327.135 356.894 328.098 356.281 328.674C355.991 328.954 355.617 329.089 355.242 329.089Z" fill="#F1EFFB"/>
<path d="M500.739 384.086C500.044 384.086 499.418 383.605 499.257 382.9C499.071 382.082 499.587 381.267 500.406 381.084C518.925 376.921 536.409 369.554 552.376 359.186C553.077 358.729 554.018 358.928 554.478 359.633C554.934 360.337 554.736 361.278 554.031 361.735C537.762 372.298 519.944 379.807 501.073 384.049C500.959 384.074 500.849 384.086 500.739 384.086Z" fill="#F1EFFB"/>
<path d="M574.262 345.714C573.849 345.714 573.437 345.547 573.138 345.217C572.572 344.597 572.616 343.634 573.236 343.07C578.507 338.262 583.507 333.054 588.095 327.591C588.636 326.949 589.593 326.864 590.235 327.405C590.877 327.944 590.962 328.903 590.421 329.545C585.748 335.109 580.653 340.418 575.281 345.317C574.995 345.582 574.63 345.714 574.262 345.714Z" fill="#F1EFFB"/>
<path d="M626.436 210.208C625.662 210.208 625.001 209.62 624.926 208.833C618.257 139.175 567.845 82.3338 499.481 67.3864C498.659 67.207 498.14 66.3983 498.319 65.577C498.499 64.7557 499.307 64.2364 500.129 64.4158C533.916 71.8014 564.016 89.4268 587.179 115.382C610.523 141.538 624.62 173.752 627.95 208.54C628.028 209.378 627.418 210.117 626.581 210.199C626.537 210.205 626.486 210.208 626.436 210.208Z" fill="#F1EFFB"/>
<path d="M388.12 83.0291C387.579 83.0291 387.057 82.7396 386.78 82.2299C386.38 81.4903 386.657 80.5683 387.397 80.1687C391.387 78.0163 395.515 76.0054 399.669 74.196C400.44 73.8593 401.334 74.2117 401.671 74.9827C402.007 75.7505 401.655 76.6474 400.884 76.9841C396.809 78.7621 392.756 80.732 388.838 82.8466C388.611 82.9725 388.363 83.0291 388.12 83.0291Z" fill="#F1EFFB"/>
<path d="M351.129 341.327C350.745 341.327 350.358 341.182 350.063 340.89C330.02 321.121 315.35 296.453 307.634 269.548C307.401 268.742 307.87 267.899 308.676 267.669C309.481 267.433 310.324 267.905 310.554 268.711C318.125 295.116 332.525 319.328 352.196 338.725C352.794 339.313 352.8 340.276 352.212 340.874C351.913 341.176 351.52 341.327 351.129 341.327Z" fill="#F1EFFB"/>
<path d="M504.503 395.018C503.81 395.018 503.187 394.543 503.023 393.842C502.835 393.023 503.341 392.208 504.16 392.016C519.607 388.423 534.489 382.692 548.388 374.986C549.121 374.577 550.047 374.844 550.456 375.577C550.865 376.311 550.597 377.236 549.864 377.645C535.719 385.49 520.573 391.324 504.852 394.981C504.732 395.006 504.616 395.018 504.503 395.018Z" fill="#F1EFFB"/>
<path d="M574.535 360.646C574.095 360.646 573.654 360.454 573.355 360.086C572.824 359.434 572.924 358.478 573.576 357.949C580.02 352.703 586.138 346.948 591.758 340.833C592.328 340.213 593.291 340.179 593.907 340.742C594.524 341.312 594.565 342.271 593.999 342.891C588.281 349.109 582.056 354.969 575.495 360.306C575.212 360.536 574.872 360.646 574.535 360.646Z" fill="#F1EFFB"/>
<path d="M637.982 210.199C637.204 210.199 636.54 209.604 636.471 208.814C630.2 138.612 582.528 80.0271 515.026 59.5633C514.223 59.321 513.77 58.4713 514.012 57.6689C514.255 56.8664 515.104 56.4133 515.907 56.6556C549.084 66.7129 578.315 86.2672 600.446 113.207C622.858 140.49 636.361 173.456 639.498 208.547C639.574 209.384 638.957 210.12 638.12 210.196C638.073 210.199 638.026 210.199 637.982 210.199Z" fill="#F1EFFB"/>
<path d="M348.304 354.477C347.939 354.477 347.574 354.345 347.281 354.084C320.763 330.008 302.47 298.955 294.386 264.277C294.194 263.459 294.704 262.644 295.522 262.452C296.34 262.266 297.155 262.769 297.347 263.588C305.293 297.661 323.264 328.176 349.326 351.834C349.946 352.397 349.993 353.36 349.43 353.98C349.131 354.307 348.719 354.477 348.304 354.477Z" fill="#F1EFFB"/>
<path d="M524.888 401.13C524.255 401.13 523.663 400.733 523.449 400.101C523.179 399.308 523.604 398.442 524.397 398.172C529.592 396.397 534.775 394.361 539.794 392.12C540.559 391.781 541.459 392.124 541.802 392.888C542.145 393.653 541.799 394.553 541.034 394.896C535.93 397.174 530.662 399.245 525.379 401.051C525.215 401.105 525.051 401.13 524.888 401.13Z" fill="#F1EFFB"/>
<path d="M574.988 374.838C574.523 374.838 574.063 374.624 573.764 374.221C573.267 373.547 573.409 372.594 574.082 372.097C578.972 368.481 583.737 364.579 588.24 360.501C588.86 359.937 589.823 359.985 590.386 360.608C590.949 361.231 590.902 362.191 590.279 362.754C585.7 366.901 580.86 370.866 575.888 374.542C575.621 374.743 575.303 374.838 574.988 374.838Z" fill="#F1EFFB"/>
<path d="M650.169 224.208C649.335 224.208 648.656 223.535 648.649 222.701C648.089 158.619 614.994 100.488 560.11 67.2007C559.393 66.7665 559.163 65.8287 559.601 65.1144C560.035 64.3969 560.969 64.1672 561.687 64.6015C588.41 80.8108 610.834 103.66 626.534 130.675C642.705 158.506 651.403 190.32 651.686 222.676C651.692 223.516 651.019 224.202 650.179 224.208C650.176 224.208 650.172 224.208 650.169 224.208Z" fill="#F1EFFB"/>
<path d="M329.674 99.4777C329.303 99.4777 328.932 99.3424 328.636 99.0686C328.022 98.4959 327.991 97.533 328.563 96.9194C344.423 79.9422 363.034 66.2252 383.875 56.1554C384.63 55.7903 385.54 56.105 385.905 56.8634C386.27 57.6186 385.952 58.5281 385.197 58.8931C364.695 68.8025 346.387 82.2929 330.785 98.9963C330.486 99.3141 330.08 99.4777 329.674 99.4777Z" fill="#F1EFFB"/>
<path d="M299.292 143.146C299.062 143.146 298.833 143.096 298.612 142.986C297.86 142.611 297.558 141.695 297.933 140.946C300.116 136.579 302.505 132.239 305.032 128.051C305.466 127.333 306.398 127.1 307.118 127.535C307.836 127.969 308.069 128.904 307.634 129.621C305.148 133.74 302.798 138.007 300.651 142.306C300.387 142.838 299.852 143.146 299.292 143.146Z" fill="#F1EFFB"/>
<path d="M343.829 365.872C343.477 365.872 343.121 365.749 342.835 365.501C309.475 336.607 287.366 296.809 280.575 253.442C280.446 252.612 281.012 251.834 281.84 251.705C282.667 251.583 283.448 252.143 283.577 252.973C290.254 295.632 312.008 334.778 344.823 363.204C345.459 363.754 345.528 364.714 344.978 365.347C344.679 365.696 344.257 365.872 343.829 365.872Z" fill="#F1EFFB"/>
<path d="M660.195 250.094C660.132 250.094 660.069 250.091 660.009 250.085C659.175 249.981 658.584 249.223 658.684 248.392C659.657 240.468 660.151 232.378 660.151 224.341C660.151 164.963 633.592 109.529 587.286 72.2514C586.632 71.7259 586.528 70.7692 587.056 70.1147C587.582 69.4602 588.539 69.3563 589.193 69.885C636.219 107.741 663.191 164.041 663.191 224.344C663.191 232.504 662.69 240.72 661.702 248.763C661.605 249.528 660.95 250.094 660.195 250.094Z" fill="#F1EFFB"/>
<path d="M319.035 94.065C318.673 94.065 318.308 93.936 318.015 93.6717C317.392 93.1084 317.342 92.1486 317.905 91.5255C338.8 68.3995 365.148 50.3084 394.109 39.2127C394.892 38.9137 395.773 39.304 396.072 40.0875C396.371 40.8711 395.981 41.749 395.197 42.0511C366.684 52.9769 340.735 70.788 320.161 93.5615C319.862 93.8951 319.45 94.065 319.035 94.065Z" fill="#F1EFFB"/>
<path d="M282.415 152.668C282.227 152.668 282.035 152.634 281.849 152.558C281.072 152.247 280.691 151.362 281.006 150.582C286.261 137.485 292.954 124.904 300.903 113.188C301.375 112.493 302.322 112.313 303.014 112.785C303.71 113.257 303.889 114.201 303.417 114.897C295.591 126.433 288.999 138.819 283.825 151.715C283.586 152.306 283.016 152.668 282.415 152.668Z" fill="#F1EFFB"/>
<path d="M330.128 368.981C329.753 368.981 329.379 368.843 329.086 368.569C295.5 336.905 273.916 294.357 268.315 248.76C268.211 247.926 268.805 247.167 269.636 247.067C270.464 246.972 271.228 247.558 271.329 248.391C276.846 293.287 298.099 335.181 331.169 366.36C331.78 366.936 331.808 367.898 331.232 368.509C330.936 368.821 330.534 368.981 330.128 368.981Z" fill="#F1EFFB"/>
<path d="M668.937 267.808C668.837 267.808 668.733 267.798 668.632 267.776C667.811 267.609 667.279 266.804 667.449 265.982C670.234 252.366 671.647 238.356 671.647 224.337C671.647 163.191 644.782 105.526 597.942 66.1275C597.3 65.5863 597.218 64.6296 597.756 63.9877C598.294 63.3457 599.254 63.2639 599.896 63.802C647.426 103.779 674.683 162.291 674.683 224.337C674.683 238.561 673.252 252.778 670.423 266.593C670.278 267.314 669.645 267.808 668.937 267.808Z" fill="#F1EFFB"/>
<path d="M312.093 84.6217C311.725 84.6217 311.353 84.4896 311.061 84.219C310.444 83.6494 310.406 82.6864 310.976 82.0697C336.714 54.2171 369.431 33.8603 405.598 23.1957C406.403 22.9597 407.247 23.4191 407.486 24.2247C407.722 25.0303 407.262 25.8768 406.457 26.1128C370.819 36.6232 338.574 56.6874 313.21 84.134C312.911 84.4581 312.502 84.6217 312.093 84.6217Z" fill="#F1EFFB"/>
<path d="M271.178 149.808C270.992 149.808 270.807 149.773 270.624 149.701C269.844 149.396 269.457 148.511 269.765 147.731C275.196 133.901 282.142 120.599 290.408 108.194C290.874 107.496 291.815 107.307 292.517 107.773C293.215 108.238 293.404 109.182 292.938 109.881C284.791 122.103 277.947 135.213 272.594 148.845C272.358 149.443 271.785 149.808 271.178 149.808Z" fill="#F1EFFB"/>
<path d="M326.496 381.244C326.137 381.244 325.776 381.118 325.486 380.857C287.686 347.142 263.371 301.038 257.014 251.041C256.907 250.207 257.499 249.446 258.33 249.342C259.16 249.241 259.922 249.827 260.029 250.657C266.291 299.927 290.257 345.361 327.509 378.592C328.136 379.149 328.189 380.111 327.632 380.738C327.33 381.074 326.915 381.244 326.496 381.244Z" fill="#F1EFFB"/>
<path d="M684.504 234.215C684.485 234.215 684.466 234.215 684.444 234.215C683.607 234.184 682.953 233.479 682.984 232.639C683.088 229.888 683.138 227.094 683.138 224.337C683.138 157.477 653.096 95.2262 600.714 53.5465C600.056 53.0241 599.949 52.0674 600.471 51.4098C600.994 50.7552 601.95 50.6451 602.608 51.1675C655.72 93.4262 686.181 156.542 686.181 224.337C686.181 227.132 686.128 229.964 686.024 232.752C685.993 233.573 685.319 234.215 684.504 234.215Z" fill="#F1EFFB"/>
<path d="M306.334 73.9664C305.957 73.9664 305.579 73.8248 305.283 73.5447C304.676 72.9625 304.657 72.0027 305.236 71.3954C327.931 47.6935 356.064 29.0486 386.591 17.4714C387.375 17.1724 388.253 17.5689 388.552 18.3525C388.851 19.1361 388.454 20.014 387.67 20.313C357.565 31.7297 329.819 50.1229 307.436 73.5006C307.134 73.809 306.734 73.9664 306.334 73.9664Z" fill="#F1EFFB"/>
<path d="M252.259 171.005C252.134 171.005 252.008 170.989 251.879 170.958C251.067 170.75 250.576 169.919 250.787 169.107C257.392 143.42 268.488 119.34 283.769 97.5391C284.25 96.8531 285.2 96.6863 285.886 97.1678C286.576 97.6492 286.739 98.5964 286.258 99.2856C271.188 120.788 260.243 144.534 253.729 169.866C253.553 170.549 252.936 171.005 252.259 171.005Z" fill="#F1EFFB"/>
<path d="M317.418 388.542C317.053 388.542 316.688 388.41 316.395 388.148C279.483 354.641 254.745 309.245 246.743 260.315C246.608 259.487 247.171 258.704 247.999 258.568C248.826 258.433 249.61 258.996 249.745 259.824C257.637 308.077 282.035 352.85 318.44 385.898C319.06 386.462 319.108 387.425 318.544 388.045C318.245 388.372 317.833 388.542 317.418 388.542Z" fill="#F1EFFB"/>
<path d="M696.113 221.386C695.288 221.386 694.609 220.725 694.593 219.894C693.293 151.46 661.822 87.6584 608.244 44.8458C607.589 44.3203 607.482 43.3668 608.005 42.7091C608.527 42.0546 609.484 41.9476 610.142 42.4699C664.427 85.8489 696.317 150.497 697.633 219.835C697.649 220.675 696.981 221.367 696.141 221.383C696.132 221.386 696.122 221.386 696.113 221.386Z" fill="#F1EFFB"/>
<path d="M301.435 62.537C301.048 62.537 300.658 62.3891 300.362 62.0933C299.767 61.4986 299.767 60.5388 300.362 59.944C323.478 36.7928 350.588 19.0888 380.943 7.3228C381.726 7.01756 382.607 7.40776 382.909 8.19132C383.215 8.97488 382.824 9.85285 382.041 10.1581C352.083 21.7699 325.326 39.2442 302.514 62.0965C302.212 62.3891 301.822 62.537 301.435 62.537Z" fill="#F1EFFB"/>
<path d="M276.905 91.4845C276.6 91.4845 276.292 91.3933 276.021 91.2013C275.338 90.7136 275.181 89.7632 275.668 89.0804C279.769 83.3531 284.184 77.7392 288.794 72.3959C289.341 71.7602 290.301 71.6878 290.937 72.2385C291.572 72.7861 291.642 73.7459 291.094 74.3815C286.544 79.6525 282.186 85.194 278.139 90.8489C277.846 91.2643 277.38 91.4845 276.905 91.4845Z" fill="#F1EFFB"/>
<path d="M234.291 211.64C234.26 211.64 234.228 211.64 234.197 211.637C233.36 211.586 232.721 210.866 232.771 210.029C235.169 170.501 247.734 132.019 269.111 98.7474C269.564 98.0394 270.508 97.838 271.21 98.2911C271.915 98.7443 272.122 99.6852 271.666 100.39C250.57 133.227 238.168 171.203 235.802 210.214C235.758 211.02 235.087 211.64 234.291 211.64Z" fill="#F1EFFB"/>
<path d="M237.991 269.614C237.277 269.614 236.638 269.107 236.5 268.381C235.984 265.677 235.505 262.93 235.087 260.211C234.958 259.381 235.528 258.606 236.355 258.477C237.186 258.352 237.963 258.918 238.089 259.746C238.504 262.43 238.973 265.139 239.483 267.808C239.64 268.632 239.099 269.428 238.278 269.586C238.183 269.605 238.086 269.614 237.991 269.614Z" fill="#F1EFFB"/>
<path d="M313.188 400.163C312.832 400.163 312.477 400.041 312.191 399.789C277.113 369.208 252.24 329.429 240.26 284.744C240.043 283.932 240.525 283.098 241.333 282.881C242.145 282.667 242.976 283.145 243.196 283.957C255.019 328.054 279.567 367.317 314.189 397.498C314.821 398.049 314.887 399.008 314.337 399.641C314.031 399.987 313.61 400.163 313.188 400.163Z" fill="#F1EFFB"/>
<path d="M707.646 224.123C706.812 224.123 706.133 223.45 706.126 222.613C705.645 154.043 675.822 88.6931 624.306 43.319C623.676 42.7652 623.616 41.8054 624.17 41.1729C624.724 40.5435 625.684 40.4806 626.316 41.0376C678.485 86.9812 708.681 153.156 709.169 222.591C709.175 223.431 708.499 224.114 707.659 224.12C707.652 224.123 707.649 224.123 707.646 224.123Z" fill="#F1EFFB"/>
<path d="M298.039 49.7952C297.636 49.7952 297.234 49.6379 296.935 49.3201C296.359 48.7096 296.384 47.7498 296.991 47.1708C316.215 28.9318 338.095 14.0347 362.024 2.88864C362.782 2.53305 363.688 2.86346 364.044 3.625C364.4 4.38653 364.069 5.28967 363.308 5.64526C339.678 16.6529 318.072 31.3643 299.084 49.3767C298.791 49.6568 298.414 49.7952 298.039 49.7952Z" fill="#F1EFFB"/>
<path d="M265.81 87.2647C265.511 87.2647 265.205 87.1766 264.941 86.9909C264.252 86.5094 264.085 85.5622 264.563 84.8762C268.579 79.1175 272.896 73.4595 277.396 68.0627C277.931 67.4176 278.891 67.3295 279.536 67.8676C280.181 68.4057 280.269 69.3624 279.731 70.0075C275.288 75.3382 271.024 80.9238 267.059 86.6133C266.763 87.0381 266.291 87.2647 265.81 87.2647Z" fill="#F1EFFB"/>
<path d="M224.391 194.351C224.325 194.351 224.259 194.348 224.193 194.339C223.359 194.232 222.773 193.467 222.88 192.636C227.582 156.385 240.056 122.431 259.963 91.7177C260.419 91.0128 261.36 90.8114 262.065 91.2677C262.77 91.724 262.971 92.6649 262.515 93.3698C242.856 123.699 230.537 157.232 225.895 193.027C225.798 193.794 225.146 194.351 224.391 194.351Z" fill="#F1EFFB"/>
<path d="M224.973 261.577C224.23 261.577 223.582 261.032 223.472 260.277C222.43 253.228 221.691 246.038 221.272 238.901C221.222 238.064 221.864 237.343 222.701 237.296C223.532 237.236 224.259 237.884 224.309 238.725C224.724 245.773 225.454 252.876 226.48 259.837C226.603 260.667 226.03 261.438 225.2 261.561C225.121 261.574 225.045 261.577 224.973 261.577Z" fill="#F1EFFB"/>
<path d="M251.548 341.327C251.007 341.327 250.484 341.037 250.211 340.531C243.719 328.551 238.202 315.954 233.822 303.087C233.551 302.291 233.976 301.428 234.772 301.158C235.569 300.887 236.431 301.312 236.701 302.108C241.028 314.815 246.472 327.254 252.886 339.083C253.285 339.823 253.011 340.745 252.275 341.144C252.042 341.267 251.794 341.327 251.548 341.327Z" fill="#F1EFFB"/>
<path d="M302.659 406.19C302.297 406.19 301.932 406.061 301.642 405.799C287.573 393.127 274.976 378.815 264.198 363.27C263.72 362.581 263.893 361.634 264.582 361.155C265.274 360.677 266.219 360.85 266.697 361.539C277.339 376.893 289.782 391.025 303.678 403.543C304.301 404.106 304.352 405.066 303.792 405.689C303.486 406.02 303.074 406.19 302.659 406.19Z" fill="#F1EFFB"/>
<path d="M718.245 247.438C718.201 247.438 718.16 247.435 718.116 247.432C717.279 247.36 716.659 246.627 716.728 245.79C717.326 238.709 717.628 231.49 717.628 224.338C717.628 160.533 693.778 99.6194 650.475 52.8167C649.905 52.1999 649.94 51.2401 650.556 50.6674C651.17 50.0978 652.133 50.1324 652.703 50.7524C696.528 98.1184 720.665 159.765 720.665 224.338C720.665 231.575 720.359 238.879 719.755 246.044C719.689 246.837 719.025 247.438 718.245 247.438Z" fill="#F1EFFB"/>
<path d="M285.015 46.4441C284.628 46.4441 284.237 46.2962 283.942 46.0004C283.347 45.4088 283.347 44.4459 283.938 43.8511C301.142 26.5908 320.662 11.9014 341.953 0.188906C342.69 -0.217034 343.612 0.0535909 344.018 0.786802C344.42 1.52316 344.153 2.44833 343.42 2.85112C322.38 14.4251 303.093 28.9415 286.094 45.9973C285.795 46.2962 285.405 46.4441 285.015 46.4441Z" fill="#F1EFFB"/>
<path d="M244.169 99.9998C243.914 99.9998 243.653 99.9338 243.417 99.7984C242.687 99.3831 242.435 98.4547 242.85 97.7247C250.79 83.822 260.101 70.5864 270.523 58.383C271.068 57.7442 272.028 57.6687 272.666 58.2131C273.305 58.7575 273.381 59.7173 272.836 60.3561C262.537 72.4147 253.335 85.493 245.49 99.232C245.21 99.7229 244.697 99.9998 244.169 99.9998Z" fill="#F1EFFB"/>
<path d="M212.222 199.481C212.169 199.481 212.118 199.478 212.065 199.471C211.231 199.386 210.624 198.637 210.709 197.803C213.723 168.566 221.685 140.33 234.373 113.887C234.738 113.129 235.644 112.811 236.399 113.173C237.158 113.535 237.476 114.444 237.114 115.199C224.577 141.327 216.713 169.224 213.733 198.112C213.651 198.899 212.993 199.481 212.222 199.481Z" fill="#F1EFFB"/>
<path d="M211.776 247.492C210.995 247.492 210.328 246.894 210.262 246.101C209.721 239.697 209.419 233.174 209.359 226.72C209.353 225.879 210.026 225.193 210.866 225.187C211.725 225.225 212.392 225.854 212.399 226.694C212.455 233.076 212.757 239.521 213.289 245.849C213.358 246.686 212.739 247.419 211.901 247.492C211.861 247.489 211.816 247.492 211.776 247.492Z" fill="#F1EFFB"/>
<path d="M296.173 415.813C295.815 415.813 295.453 415.687 295.163 415.429C283.482 405.038 272.698 393.521 263.106 381.191C262.59 380.531 262.71 379.574 263.374 379.058C264.035 378.542 264.991 378.661 265.507 379.325C274.986 391.51 285.644 402.892 297.187 413.157C297.813 413.714 297.869 414.677 297.312 415.303C297.007 415.64 296.592 415.813 296.173 415.813Z" fill="#F1EFFB"/>
<path d="M724.397 283.381C724.29 283.381 724.18 283.372 724.07 283.347C723.248 283.164 722.732 282.355 722.912 281.534C727.031 262.87 729.123 243.627 729.123 224.337C729.123 163.103 707.69 103.42 668.77 56.2841C668.235 55.6358 668.327 54.6792 668.975 54.1442C669.623 53.6093 670.58 53.7005 671.115 54.3488C710.482 102.026 732.163 162.398 732.163 224.337C732.163 243.848 730.049 263.311 725.882 282.188C725.725 282.9 725.095 283.381 724.397 283.381Z" fill="#F1EFFB"/>
<path d="M268.343 47.2904C267.978 47.2904 267.613 47.1582 267.32 46.897C266.7 46.3337 266.653 45.3708 267.216 44.7509C276.575 34.4513 286.812 24.8094 297.649 16.0896C298.304 15.5609 299.26 15.6648 299.786 16.3193C300.311 16.9738 300.208 17.9305 299.556 18.456C288.841 27.0783 278.721 36.61 269.469 46.7932C269.17 47.1236 268.758 47.2904 268.343 47.2904Z" fill="#F1EFFB"/>
<path d="M237.186 89.1781C236.919 89.1781 236.651 89.1088 236.406 88.9609C235.685 88.5298 235.455 87.5952 235.886 86.8746C242.435 75.9834 249.833 65.4604 257.88 55.5951C258.411 54.9437 259.368 54.8462 260.019 55.378C260.671 55.9098 260.768 56.8664 260.237 57.5178C252.281 67.2698 244.965 77.6764 238.492 88.4417C238.206 88.9169 237.702 89.1781 237.186 89.1781Z" fill="#F1EFFB"/>
<path d="M201.06 195.77C201.004 195.77 200.947 195.767 200.887 195.761C200.054 195.667 199.452 194.914 199.547 194.081C202.895 164.384 211.14 135.694 224.058 108.805C224.419 108.05 225.329 107.729 226.084 108.094C226.839 108.459 227.16 109.365 226.795 110.12C214.025 136.701 205.875 165.064 202.565 194.42C202.48 195.198 201.822 195.77 201.06 195.77Z" fill="#F1EFFB"/>
<path d="M199.89 242.573C199.094 242.573 198.423 241.954 198.373 241.148C198.077 236.371 197.904 231.515 197.863 226.717C197.857 225.876 198.53 225.19 199.371 225.184C199.374 225.184 199.38 225.184 199.383 225.184C200.217 225.184 200.894 225.857 200.903 226.691C200.944 231.437 201.114 236.239 201.407 240.962C201.457 241.799 200.821 242.52 199.984 242.573C199.953 242.57 199.921 242.573 199.89 242.573Z" fill="#F1EFFB"/>
<path d="M286.513 422.588C286.148 422.588 285.783 422.455 285.49 422.194C276.474 414.009 267.94 405.129 260.123 395.799C259.585 395.157 259.67 394.197 260.312 393.659C260.954 393.121 261.914 393.203 262.452 393.848C270.177 403.071 278.617 411.851 287.532 419.944C288.152 420.508 288.199 421.47 287.636 422.09C287.34 422.418 286.928 422.588 286.513 422.588Z" fill="#F1EFFB"/>
<path d="M730.643 305.101C730.499 305.101 730.354 305.082 730.209 305.038C729.404 304.799 728.947 303.952 729.187 303.147C736.774 277.683 740.619 251.167 740.619 224.338C740.619 161.281 719.894 101.939 680.688 52.7285C680.165 52.0708 680.272 51.1173 680.93 50.5918C681.588 50.0694 682.544 50.1764 683.067 50.8341C702.3 74.9734 717.279 101.891 727.588 130.839C738.256 160.791 743.662 192.249 743.662 224.338C743.662 251.46 739.772 278.268 732.104 304.015C731.902 304.673 731.298 305.101 730.643 305.101Z" fill="#F1EFFB"/>
<path d="M256.75 43.0142C256.394 43.0142 256.036 42.8883 255.746 42.6365C255.117 42.0827 255.054 41.1229 255.608 40.4904C257.681 38.1303 259.821 35.7765 261.967 33.4919C262.543 32.8814 263.503 32.8499 264.117 33.4258C264.727 34.0016 264.759 34.9614 264.183 35.5751C262.059 37.8345 259.941 40.1631 257.892 42.4981C257.593 42.8379 257.172 43.0142 256.75 43.0142Z" fill="#F1EFFB"/>
<path d="M225.439 86.4531C225.178 86.4531 224.917 86.387 224.674 86.2454C223.95 85.8238 223.705 84.8923 224.127 84.1654C230.748 72.8116 238.253 61.8198 246.428 51.4919C246.947 50.8342 247.904 50.724 248.562 51.2433C249.22 51.7656 249.33 52.7191 248.81 53.3768C240.723 63.5883 233.303 74.4637 226.754 85.6947C226.471 86.1825 225.961 86.4531 225.439 86.4531Z" fill="#F1EFFB"/>
<path d="M188.25 240.333C187.448 240.333 186.774 239.703 186.733 238.892C186.485 234.077 186.359 229.18 186.359 224.337C186.359 182.985 195.201 143.184 212.644 106.039C213 105.28 213.906 104.953 214.668 105.309C215.426 105.664 215.753 106.571 215.398 107.332C198.147 144.068 189.402 183.435 189.402 224.337C189.402 229.13 189.524 233.973 189.77 238.734C189.814 239.571 189.169 240.286 188.329 240.33C188.3 240.333 188.275 240.333 188.25 240.333Z" fill="#F1EFFB"/>
<path d="M279.838 432.047C279.476 432.047 279.114 431.918 278.822 431.657C270.612 424.281 262.76 416.332 255.478 408.037C254.925 407.404 254.988 406.445 255.62 405.891C256.249 405.34 257.209 405.4 257.766 406.032C264.966 414.239 272.736 422.1 280.854 429.398C281.478 429.958 281.531 430.921 280.968 431.544C280.669 431.877 280.253 432.047 279.838 432.047Z" fill="#F1EFFB"/>
<path d="M739.971 313.859C739.817 313.859 739.662 313.837 739.508 313.786C738.709 313.531 738.268 312.675 738.523 311.876C740.314 306.275 741.953 300.544 743.394 294.836C743.599 294.024 744.424 293.53 745.239 293.735C746.05 293.939 746.545 294.767 746.34 295.579C744.883 301.347 743.228 307.14 741.418 312.801C741.211 313.446 740.613 313.859 739.971 313.859Z" fill="#F1EFFB"/>
<path d="M751.897 257.719C751.84 257.719 751.784 257.716 751.73 257.71C750.896 257.618 750.295 256.866 750.386 256.032C751.535 245.582 752.117 234.917 752.117 224.338C752.117 159.711 731.153 98.6848 691.487 47.8572C690.971 47.1964 691.088 46.2398 691.752 45.7237C692.416 45.2076 693.369 45.324 693.885 45.988C733.97 97.3537 755.157 159.028 755.157 224.338C755.157 235.027 754.569 245.802 753.411 256.366C753.319 257.143 752.662 257.719 751.897 257.719Z" fill="#F1EFFB"/>
<path d="M212.219 86.4528C211.971 86.4528 211.719 86.393 211.486 86.264C210.753 85.858 210.485 84.9329 210.891 84.1997C217.833 71.6375 225.791 59.475 234.536 48.0552C235.046 47.3881 236.003 47.2622 236.667 47.772C237.334 48.2818 237.46 49.2353 236.95 49.9024C228.293 61.2027 220.42 73.2361 213.55 85.6661C213.273 86.1696 212.754 86.4528 212.219 86.4528Z" fill="#F1EFFB"/>
<path d="M176.408 229.747C175.577 229.747 174.901 229.08 174.888 228.249C174.869 226.949 174.863 225.644 174.863 224.338C174.863 180.741 184.294 138.829 202.892 99.7642C203.254 99.0058 204.16 98.6848 204.918 99.0467C205.677 99.4086 205.998 100.315 205.636 101.073C187.233 139.726 177.903 181.198 177.903 224.341C177.903 225.631 177.912 226.921 177.928 228.208C177.937 229.048 177.267 229.738 176.427 229.75C176.421 229.747 176.414 229.747 176.408 229.747Z" fill="#F1EFFB"/>
<path d="M278.564 446.189C278.218 446.189 277.868 446.072 277.582 445.83C269.775 439.218 262.232 432.11 255.158 424.705C254.579 424.098 254.601 423.135 255.208 422.556C255.815 421.977 256.775 421.999 257.357 422.606C264.356 429.935 271.82 436.968 279.546 443.511C280.188 444.052 280.266 445.012 279.722 445.654C279.423 446.006 278.995 446.189 278.564 446.189Z" fill="#F1EFFB"/>
<path d="M754.883 303.896C754.751 303.896 754.619 303.88 754.49 303.842C753.678 303.625 753.199 302.791 753.417 301.982C755.651 293.656 757.545 285.128 759.046 276.632C759.194 275.804 759.99 275.253 760.808 275.398C761.636 275.546 762.187 276.333 762.042 277.16C760.525 285.745 758.612 294.361 756.353 302.769C756.167 303.449 755.553 303.896 754.883 303.896Z" fill="#F1EFFB"/>
<path d="M765.076 220.329C764.248 220.329 763.572 219.665 763.556 218.837C762.423 156.14 742.076 96.4569 704.707 46.2461C704.207 45.5727 704.345 44.6192 705.019 44.1188C705.692 43.6185 706.645 43.757 707.146 44.4304C744.892 95.1541 765.45 155.444 766.596 218.78C766.611 219.62 765.941 220.313 765.104 220.325C765.095 220.329 765.085 220.329 765.076 220.329Z" fill="#F1EFFB"/>
<path d="M165.08 215.042C165.061 215.042 165.042 215.042 165.026 215.042C164.189 215.013 163.532 214.308 163.56 213.468C165.712 152.659 185.896 94.6472 221.927 45.6983C222.424 45.0217 223.378 44.877 224.051 45.3742C224.728 45.8714 224.873 46.8249 224.376 47.4983C188.709 95.9563 168.73 153.383 166.597 213.578C166.568 214.397 165.895 215.042 165.08 215.042Z" fill="#F1EFFB"/>
<path d="M269.243 453.345C268.89 453.345 268.538 453.226 268.252 452.977C262.131 447.703 256.146 442.117 250.466 436.371C249.874 435.773 249.88 434.81 250.478 434.222C251.073 433.633 252.036 433.636 252.628 434.234C258.251 439.924 264.173 445.456 270.234 450.673C270.87 451.221 270.942 452.181 270.395 452.816C270.092 453.166 269.668 453.345 269.243 453.345Z" fill="#F1EFFB"/>
<path d="M763.619 315.227C763.474 315.227 763.329 315.208 763.181 315.164C762.376 314.925 761.92 314.075 762.159 313.273C766.847 297.589 770.306 281.389 772.442 265.12C772.553 264.289 773.32 263.701 774.148 263.811C774.979 263.921 775.567 264.683 775.457 265.517C773.298 281.946 769.805 298.307 765.073 314.145C764.878 314.802 764.273 315.227 763.619 315.227Z" fill="#F1EFFB"/>
<path d="M776.407 214.214C775.595 214.214 774.919 213.569 774.89 212.751C772.603 150.462 751.9 91.0221 715.019 40.8585C714.522 40.1819 714.667 39.2316 715.343 38.7344C716.02 38.2372 716.97 38.3819 717.467 39.0585C754.71 89.7193 775.614 149.742 777.924 212.641C777.955 213.481 777.301 214.186 776.461 214.214C776.445 214.211 776.426 214.214 776.407 214.214Z" fill="#F1EFFB"/>
<path d="M153.578 215.042C153.559 215.042 153.543 215.042 153.524 215.042C152.684 215.014 152.03 214.309 152.058 213.472C154.198 150.683 174.876 90.6982 211.854 40.0028C212.348 39.3231 213.298 39.1752 213.978 39.6692C214.658 40.1633 214.806 41.1136 214.312 41.7933C177.692 91.9947 157.216 151.397 155.095 213.575C155.066 214.397 154.393 215.042 153.578 215.042Z" fill="#F1EFFB"/>
<path d="M272.613 471.005C272.286 471.005 271.952 470.898 271.675 470.681C264.847 465.312 258.154 459.588 251.784 453.663C251.171 453.09 251.136 452.13 251.706 451.513C252.278 450.9 253.238 450.865 253.855 451.435C260.164 457.304 266.792 462.974 273.554 468.286C274.215 468.805 274.328 469.762 273.809 470.419C273.51 470.807 273.063 471.005 272.613 471.005Z" fill="#F1EFFB"/>
<path d="M778.988 302.438C778.868 302.438 778.749 302.426 778.629 302.394C777.814 302.196 777.314 301.375 777.512 300.557C783.252 276.943 786.301 252.545 786.578 228.038C786.587 227.204 787.267 226.534 788.098 226.534C788.104 226.534 788.107 226.534 788.114 226.534C788.954 226.543 789.624 227.232 789.618 228.069C789.338 252.807 786.26 277.437 780.467 301.274C780.297 301.973 779.674 302.438 778.988 302.438Z" fill="#F1EFFB"/>
<path d="M787.264 202.222C786.474 202.222 785.807 201.611 785.75 200.812C781.678 144.484 762.713 90.053 730.908 43.4013C730.436 42.709 730.615 41.7618 731.307 41.2898C732 40.8177 732.947 40.994 733.419 41.6894C765.526 88.7817 784.671 143.732 788.784 200.592C788.844 201.429 788.214 202.156 787.377 202.218C787.34 202.222 787.302 202.222 787.264 202.222Z" fill="#F1EFFB"/>
<path d="M142.504 205.903C142.473 205.903 142.441 205.903 142.41 205.9C141.573 205.85 140.934 205.129 140.984 204.292C144.657 144.036 165.035 86.1569 199.915 36.9122C200.399 36.2294 201.35 36.0657 202.033 36.5503C202.719 37.035 202.879 37.9853 202.395 38.6682C167.842 87.4503 147.655 144.785 144.018 204.474C143.971 205.283 143.3 205.903 142.504 205.903Z" fill="#F1EFFB"/>
<path d="M763.184 377.836C762.951 377.836 762.715 377.783 762.492 377.669C761.746 377.289 761.447 376.373 761.831 375.624C765.595 368.254 769.125 360.648 772.32 353.027C772.644 352.253 773.534 351.891 774.308 352.212C775.082 352.536 775.447 353.426 775.123 354.2C771.898 361.894 768.336 369.566 764.537 377.006C764.27 377.534 763.738 377.836 763.184 377.836Z" fill="#F1EFFB"/>
<path d="M789.36 308.389C789.237 308.389 789.111 308.374 788.985 308.342C788.174 308.134 787.679 307.31 787.887 306.495C792.683 287.592 795.827 268.097 797.23 248.549C797.29 247.712 798.036 247.083 798.854 247.143C799.691 247.202 800.32 247.929 800.26 248.766C798.844 268.491 795.672 288.165 790.833 307.241C790.656 307.933 790.036 308.389 789.36 308.389Z" fill="#F1EFFB"/>
<path d="M795.194 171.357C794.464 171.357 793.819 170.829 793.696 170.083C786.311 124.986 769.985 82.6072 745.175 44.1184C744.719 43.4135 744.923 42.4726 745.628 42.0163C746.333 41.56 747.274 41.7646 747.73 42.4694C772.767 81.3107 789.243 124.079 796.698 169.589C796.834 170.416 796.27 171.2 795.443 171.335C795.358 171.351 795.276 171.357 795.194 171.357Z" fill="#F1EFFB"/>
<path d="M133.404 180.858C133.335 180.858 133.269 180.854 133.199 180.845C132.369 180.732 131.783 179.967 131.897 179.136C138.64 128.963 157.087 80.1465 185.238 37.9696C185.704 37.271 186.648 37.0822 187.347 37.548C188.045 38.0137 188.234 38.9577 187.769 39.6563C159.869 81.4493 141.592 129.822 134.908 179.539C134.807 180.304 134.153 180.858 133.404 180.858Z" fill="#F1EFFB"/>
<path d="M770.567 388.542C770.325 388.542 770.079 388.485 769.853 388.362C769.113 387.969 768.83 387.047 769.227 386.307C777.298 371.177 784.284 355.317 789.989 339.171C790.269 338.381 791.135 337.963 791.928 338.246C792.721 338.526 793.133 339.394 792.853 340.184C787.097 356.475 780.049 372.474 771.905 387.739C771.634 388.249 771.108 388.542 770.567 388.542Z" fill="#F1EFFB"/>
<path d="M802.844 301.391C802.734 301.391 802.624 301.378 802.514 301.353C801.696 301.17 801.179 300.359 801.362 299.54C802.696 293.549 803.886 287.431 804.896 281.364C805.034 280.534 805.821 279.98 806.645 280.115C807.473 280.254 808.033 281.037 807.895 281.865C806.875 287.988 805.676 294.159 804.329 300.204C804.169 300.909 803.54 301.391 802.844 301.391Z" fill="#F1EFFB"/>
<path d="M809.223 189.54C808.455 189.54 807.794 188.958 807.712 188.177C807.24 183.662 806.674 179.092 806.025 174.599C805.906 173.768 806.482 172.997 807.312 172.877C808.149 172.752 808.914 173.334 809.034 174.165C809.688 178.696 810.261 183.306 810.739 187.863C810.827 188.697 810.22 189.446 809.386 189.53C809.33 189.54 809.276 189.54 809.223 189.54Z" fill="#F1EFFB"/>
<path d="M805.308 162.433C804.591 162.433 803.952 161.92 803.816 161.19C796.06 119.303 780.738 79.6526 758.285 43.3445C757.841 42.6302 758.065 41.6925 758.779 41.2519C759.493 40.8113 760.431 41.0316 760.872 41.746C783.526 78.3782 798.983 118.377 806.809 160.639C806.963 161.464 806.416 162.257 805.591 162.411C805.494 162.427 805.399 162.433 805.308 162.433Z" fill="#F1EFFB"/>
<path d="M122.981 172.591C122.903 172.591 122.827 172.585 122.748 172.572C121.918 172.443 121.351 171.669 121.477 170.838C129.168 121.058 147.212 74.4885 175.115 32.428C175.577 31.7262 176.521 31.5374 177.22 32C177.919 32.4658 178.111 33.4067 177.648 34.1053C149.991 75.8007 132.104 121.958 124.482 171.301C124.366 172.056 123.718 172.591 122.981 172.591Z" fill="#F1EFFB"/>
<path d="M774.387 405.302C774.126 405.302 773.865 405.236 773.626 405.097C772.902 404.676 772.653 403.744 773.075 403.02C785.791 381.144 796.17 357.873 803.927 333.853C804.185 333.057 805.041 332.619 805.84 332.874C806.639 333.132 807.077 333.988 806.819 334.788C798.996 359.012 788.526 382.484 775.703 404.547C775.42 405.028 774.91 405.302 774.387 405.302Z" fill="#F1EFFB"/>
<path d="M814.176 303.398C814.069 303.398 813.956 303.385 813.849 303.363C813.028 303.181 812.511 302.372 812.691 301.551C813.559 297.614 814.371 293.63 815.095 289.716C815.246 288.891 816.036 288.343 816.867 288.498C817.691 288.649 818.236 289.445 818.085 290.269C817.351 294.222 816.536 298.237 815.658 302.208C815.501 302.913 814.872 303.398 814.176 303.398Z" fill="#F1EFFB"/>
<path d="M820.303 185.093C819.541 185.093 818.884 184.52 818.796 183.743C818.292 179.309 817.697 174.822 817.027 170.41C816.901 169.579 817.474 168.805 818.301 168.679C819.139 168.55 819.906 169.123 820.032 169.954C820.709 174.407 821.307 178.928 821.816 183.403C821.911 184.237 821.313 184.989 820.479 185.084C820.419 185.09 820.36 185.093 820.303 185.093Z" fill="#F1EFFB"/>
<path d="M815.072 152.517C814.368 152.517 813.735 152.023 813.587 151.306C806.425 116.943 794.209 83.9009 777.279 53.0935C776.873 52.3571 777.144 51.4351 777.88 51.0291C778.617 50.6232 779.542 50.8938 779.944 51.6302C797.019 82.7019 809.342 116.03 816.567 150.689C816.737 151.51 816.212 152.316 815.387 152.486C815.28 152.505 815.176 152.517 815.072 152.517Z" fill="#F1EFFB"/>
<path d="M118.299 137.941C118.176 137.941 118.05 137.925 117.925 137.894C117.11 137.689 116.619 136.862 116.823 136.047C125.376 102.215 138.838 69.85 156.838 39.8481C157.269 39.1275 158.204 38.8947 158.925 39.3258C159.645 39.7569 159.878 40.6915 159.447 41.4121C141.601 71.1591 128.253 103.247 119.772 136.792C119.599 137.482 118.979 137.941 118.299 137.941Z" fill="#F1EFFB"/>
<path d="M789.551 401.787C789.306 401.787 789.057 401.727 788.828 401.601C788.088 401.202 787.818 400.276 788.217 399.54C800.889 376.21 811.022 351.472 818.335 326.015C818.568 325.206 819.412 324.74 820.214 324.973C821.02 325.206 821.485 326.046 821.256 326.852C813.883 352.523 803.665 377.468 790.886 400.991C790.612 401.501 790.09 401.787 789.551 401.787Z" fill="#F1EFFB"/>
<path d="M825.297 306.35C825.187 306.35 825.077 306.338 824.967 306.312C824.148 306.13 823.629 305.318 823.812 304.5C824.816 299.975 825.747 295.383 826.575 290.846C826.726 290.018 827.522 289.474 828.343 289.625C829.168 289.776 829.715 290.566 829.564 291.393C828.73 295.966 827.789 300.598 826.776 305.158C826.622 305.866 825.996 306.35 825.297 306.35Z" fill="#F1EFFB"/>
<path d="M831.357 180.672C830.599 180.672 829.944 180.106 829.85 179.338C829.365 175.363 828.808 171.345 828.192 167.396C828.063 166.565 828.632 165.787 829.46 165.658C830.287 165.536 831.068 166.096 831.197 166.927C831.817 170.911 832.377 174.964 832.868 178.97C832.968 179.803 832.377 180.562 831.543 180.663C831.48 180.669 831.42 180.672 831.357 180.672Z" fill="#F1EFFB"/>
<path d="M825.907 148.184C825.205 148.184 824.576 147.696 824.422 146.982C817.42 114.283 805.947 82.6891 790.32 53.0711C789.929 52.3285 790.213 51.4096 790.955 51.0194C791.698 50.6292 792.617 50.9124 793.01 51.6551C808.763 81.5185 820.334 113.377 827.396 146.346C827.572 147.168 827.049 147.976 826.228 148.149C826.121 148.171 826.014 148.184 825.907 148.184Z" fill="#F1EFFB"/>
<path d="M108.248 130.902C108.119 130.902 107.987 130.886 107.858 130.851C107.046 130.637 106.564 129.803 106.778 128.992C114.897 98.4107 126.965 68.9249 142.646 41.3587C143.061 40.6287 143.99 40.3738 144.72 40.7891C145.45 41.2045 145.705 42.1328 145.289 42.8629C129.738 70.2025 117.77 99.4429 109.721 129.772C109.535 130.452 108.918 130.902 108.248 130.902Z" fill="#F1EFFB"/>
<path d="M807.253 392.529C807.029 392.529 806.803 392.479 806.586 392.375C805.83 392.007 805.519 391.098 805.887 390.342C814.056 373.595 821.033 356.108 826.621 338.369C826.873 337.57 827.726 337.123 828.528 337.375C829.331 337.627 829.775 338.479 829.523 339.282C823.89 357.165 816.857 374.794 808.618 391.677C808.354 392.215 807.816 392.529 807.253 392.529Z" fill="#F1EFFB"/>
<path d="M835.411 313.679C835.294 313.679 835.178 313.667 835.061 313.638C834.243 313.446 833.74 312.625 833.932 311.81C835.326 305.913 836.597 299.88 837.711 293.879C837.862 293.052 838.652 292.501 839.483 292.662C840.307 292.816 840.852 293.609 840.7 294.433C839.577 300.481 838.296 306.564 836.893 312.509C836.726 313.207 836.1 313.679 835.411 313.679Z" fill="#F1EFFB"/>
<path d="M841.493 169.812C840.75 169.812 840.102 169.268 839.992 168.516C839.054 162.156 837.94 155.746 836.682 149.465C836.515 148.64 837.05 147.841 837.874 147.674C838.699 147.51 839.498 148.042 839.665 148.867C840.933 155.198 842.056 161.659 843.004 168.069C843.126 168.899 842.55 169.67 841.72 169.793C841.641 169.806 841.569 169.812 841.493 169.812Z" fill="#F1EFFB"/>
<path d="M835.64 139.017C834.951 139.017 834.325 138.545 834.161 137.843C828.107 111.904 819.255 86.5282 807.854 62.4235C807.495 61.6651 807.819 60.7589 808.578 60.4001C809.336 60.0414 810.242 60.3655 810.601 61.1239C822.096 85.4237 831.021 111.001 837.122 137.151C837.314 137.969 836.805 138.784 835.986 138.976C835.87 139.002 835.754 139.017 835.64 139.017Z" fill="#F1EFFB"/>
<path d="M98.5589 122.736C98.4235 122.736 98.2851 122.717 98.1466 122.679C97.3379 122.453 96.869 121.612 97.0956 120.804C105.06 92.4445 116.36 64.979 130.688 39.1687C131.094 38.4355 132.019 38.1712 132.755 38.5771C133.489 38.9831 133.753 39.9082 133.347 40.6446C119.136 66.2472 107.924 93.4955 100.025 121.625C99.8333 122.295 99.2228 122.736 98.5589 122.736Z" fill="#F1EFFB"/>
<path d="M819.031 394.577C818.811 394.577 818.587 394.53 818.377 394.429C817.618 394.068 817.297 393.161 817.659 392.403C828.236 370.252 836.738 346.988 842.931 323.264C843.142 322.452 843.97 321.964 844.785 322.178C845.597 322.389 846.084 323.22 845.87 324.032C839.627 347.945 831.058 371.388 820.4 393.712C820.142 394.256 819.598 394.577 819.031 394.577Z" fill="#F1EFFB"/>
<path d="M845.37 321.386C845.247 321.386 845.125 321.37 844.999 321.342C844.184 321.137 843.69 320.313 843.894 319.498C845.373 313.585 846.733 307.556 847.932 301.58C848.095 300.755 848.904 300.227 849.722 300.387C850.547 300.554 851.079 301.353 850.915 302.178C849.707 308.201 848.338 314.277 846.846 320.234C846.67 320.926 846.05 321.386 845.37 321.386Z" fill="#F1EFFB"/>
<path d="M851.308 158.424C850.584 158.424 849.939 157.902 849.813 157.162C848.048 146.976 845.845 136.736 843.271 126.729C843.063 125.917 843.551 125.087 844.363 124.879C845.174 124.668 846.002 125.159 846.213 125.971C848.806 136.056 851.024 146.375 852.806 156.64C852.95 157.467 852.396 158.254 851.569 158.396C851.484 158.418 851.396 158.424 851.308 158.424Z" fill="#F1EFFB"/>
<path d="M838.8 107.156C838.155 107.156 837.557 106.744 837.352 106.095C832.449 90.6444 826.511 75.3477 819.705 60.6206C819.352 59.859 819.683 58.9559 820.447 58.6034C821.209 58.251 822.112 58.5814 822.465 59.3461C829.325 74.1865 835.31 89.606 840.25 105.176C840.505 105.976 840.062 106.832 839.262 107.083C839.105 107.131 838.951 107.156 838.8 107.156Z" fill="#F1EFFB"/>
<path d="M90.3739 109.847C90.226 109.847 90.0749 109.825 89.9239 109.777C89.1215 109.529 88.6746 108.679 88.9201 107.877C93.8983 91.7869 99.9812 75.8608 107.005 60.5326C107.354 59.7711 108.257 59.4344 109.019 59.7837C109.78 60.133 110.117 61.0361 109.768 61.7976C102.798 77.0063 96.7619 92.8096 91.8246 108.773C91.6232 109.428 91.0221 109.847 90.3739 109.847Z" fill="#F1EFFB"/>
<path d="M830.486 397.252C830.268 397.252 830.048 397.205 829.84 397.108C829.082 396.752 828.755 395.846 829.11 395.087C837.793 376.6 845.109 357.303 850.852 337.73C851.088 336.925 851.941 336.468 852.737 336.698C853.542 336.934 854.005 337.777 853.769 338.583C847.982 358.307 840.612 377.752 831.861 396.378C831.603 396.928 831.058 397.252 830.486 397.252Z" fill="#F1EFFB"/>
<path d="M856.811 323.013C856.692 323.013 856.569 323 856.446 322.969C855.631 322.767 855.134 321.943 855.336 321.128C856.091 318.075 856.824 314.947 857.516 311.832C857.699 311.014 858.504 310.498 859.329 310.677C860.147 310.86 860.666 311.672 860.484 312.49C859.785 315.627 859.046 318.78 858.287 321.858C858.117 322.547 857.494 323.013 856.811 323.013Z" fill="#F1EFFB"/>
<path d="M849.36 102.429C848.718 102.429 848.12 102.017 847.913 101.372C842.912 85.7858 836.88 70.3381 829.982 55.4599C829.629 54.6983 829.96 53.7952 830.721 53.4428C831.483 53.0872 832.386 53.4207 832.742 54.1823C839.69 69.1737 845.766 84.7379 850.808 100.447C851.062 101.246 850.625 102.102 849.823 102.357C849.668 102.404 849.511 102.429 849.36 102.429Z" fill="#F1EFFB"/>
<path d="M81.1003 101.051C80.943 101.051 80.7856 101.026 80.6314 100.975C79.8321 100.714 79.3947 99.8582 79.6559 99.0589C83.451 87.381 87.8345 75.7378 92.6869 64.4533C93.0173 63.6823 93.9142 63.3267 94.682 63.6571C95.453 63.9875 95.8086 64.8812 95.4782 65.6522C90.6635 76.8518 86.3115 88.4069 82.5479 99.9967C82.337 100.642 81.7423 101.051 81.1003 101.051Z" fill="#F1EFFB"/>
<path d="M836.76 410.68C836.534 410.68 836.301 410.629 836.084 410.519C835.331 410.145 835.026 409.232 835.401 408.48C844.545 390.115 852.375 370.923 858.662 351.428C858.92 350.632 859.773 350.195 860.575 350.45C861.375 350.708 861.812 351.564 861.554 352.363C855.219 371.999 847.333 391.336 838.12 409.836C837.855 410.371 837.317 410.68 836.76 410.68Z" fill="#F1EFFB"/>
<path d="M861.419 102.429C860.771 102.429 860.17 102.011 859.968 101.359C853.914 81.8931 846.333 62.7037 837.434 44.3263C837.069 43.571 837.383 42.6616 838.139 42.2966C838.891 41.9315 839.803 42.2462 840.168 43.0014C849.134 61.5174 856.771 80.8483 862.873 100.459C863.121 101.262 862.674 102.111 861.872 102.363C861.718 102.407 861.567 102.429 861.419 102.429Z" fill="#F1EFFB"/>
<path d="M69.5514 99.3959C69.3972 99.3959 69.2431 99.3739 69.0889 99.3235C68.2896 99.0686 67.849 98.2127 68.1039 97.4134C71.792 85.8708 76.0402 74.3535 80.7321 63.1854C81.0562 62.4113 81.9499 62.0462 82.7209 62.3735C83.495 62.6976 83.8601 63.5882 83.5328 64.3623C78.8755 75.4517 74.6587 86.8841 70.999 98.3417C70.7944 98.9837 70.1965 99.3959 69.5514 99.3959Z" fill="#F1EFFB"/>
<path d="M847.12 415.667C846.893 415.667 846.66 415.617 846.443 415.507C845.691 415.132 845.386 414.22 845.76 413.471C853.649 397.623 860.604 381.121 866.432 364.415C866.709 363.622 867.577 363.2 868.367 363.48C869.16 363.757 869.579 364.623 869.302 365.416C863.43 382.238 856.425 398.863 848.482 414.824C848.215 415.359 847.677 415.667 847.12 415.667Z" fill="#F1EFFB"/>
<path d="M881.779 134.546C881.08 134.546 880.451 134.061 880.294 133.35C878.56 125.408 876.577 117.424 874.396 109.623C874.17 108.814 874.642 107.977 875.451 107.751C876.263 107.521 877.096 107.996 877.323 108.805C879.52 116.663 881.521 124.703 883.264 132.702C883.444 133.523 882.924 134.332 882.103 134.511C881.993 134.533 881.883 134.546 881.779 134.546Z" fill="#F1EFFB"/>
<path d="M873.05 101.13C872.398 101.13 871.797 100.708 871.596 100.053C866.662 83.8913 860.689 67.8614 853.845 52.4042C853.505 51.6364 853.851 50.7395 854.619 50.3997C855.384 50.0598 856.284 50.4059 856.623 51.1738C863.518 66.7443 869.535 82.8906 874.504 99.1692C874.749 99.9716 874.296 100.821 873.494 101.067C873.346 101.108 873.198 101.13 873.05 101.13Z" fill="#F1EFFB"/>
<path d="M58.2796 96.9034C58.1286 96.9034 57.9744 96.8814 57.8202 96.8311C57.0209 96.5762 56.5772 95.7234 56.8289 94.9241C60.9198 82.0095 65.6904 69.1358 71.0054 56.665C71.3358 55.8908 72.2264 55.5321 73.0005 55.8625C73.7715 56.1929 74.1333 57.0835 73.8029 57.8576C68.5257 70.2404 63.7929 83.0196 59.7303 95.8461C59.5226 96.4912 58.9247 96.9034 58.2796 96.9034Z" fill="#F1EFFB"/>
<path d="M852.422 430.514C852.183 430.514 851.938 430.458 851.711 430.338C850.969 429.945 850.689 429.026 851.079 428.283C853.514 423.683 855.9 418.972 858.172 414.28C858.54 413.525 859.452 413.21 860.201 413.572C860.957 413.937 861.274 414.846 860.906 415.601C858.619 420.325 856.217 425.07 853.763 429.702C853.492 430.222 852.967 430.514 852.422 430.514Z" fill="#F1EFFB"/>
<path d="M862.926 409.295C862.712 409.295 862.498 409.251 862.291 409.154C861.529 408.801 861.196 407.898 861.548 407.137C865.645 398.263 869.494 389.131 872.984 379.986C873.283 379.202 874.164 378.809 874.947 379.108C875.731 379.407 876.124 380.285 875.825 381.072C872.31 390.279 868.437 399.477 864.308 408.411C864.053 408.968 863.502 409.295 862.926 409.295Z" fill="#F1EFFB"/>
<path d="M890.011 119.274C889.331 119.274 888.708 118.812 888.538 118.123C887.028 112.081 885.366 105.998 883.601 100.044C883.362 99.2384 883.821 98.3919 884.627 98.1559C885.432 97.9199 886.279 98.3762 886.518 99.1818C888.296 105.176 889.97 111.303 891.49 117.389C891.695 118.204 891.201 119.029 890.386 119.233C890.257 119.259 890.134 119.274 890.011 119.274Z" fill="#F1EFFB"/>
<path d="M882.046 91.3964C881.404 91.3964 880.806 90.9874 880.599 90.3423C877.373 80.3291 873.735 70.3064 869.783 60.5512C869.468 59.774 869.843 58.8866 870.62 58.5719C871.397 58.2572 872.285 58.6317 872.599 59.409C876.577 69.2333 880.243 79.3252 883.491 89.4076C883.749 90.2069 883.308 91.0629 882.509 91.3209C882.358 91.3744 882.2 91.3964 882.046 91.3964Z" fill="#F1EFFB"/>
<path d="M42.8444 108.493C42.7091 108.493 42.5738 108.474 42.4384 108.437C41.6297 108.213 41.1545 107.376 41.3811 106.567C45.5412 91.5728 50.5604 76.638 56.3065 62.172C56.6149 61.3916 57.4992 61.0077 58.2796 61.3192C59.06 61.6276 59.4407 62.5119 59.1324 63.2923C53.4272 77.6576 48.4426 92.4885 44.3108 107.379C44.122 108.053 43.5115 108.493 42.8444 108.493Z" fill="#F1EFFB"/>
<path d="M899.688 110.734C899.014 110.734 898.401 110.284 898.218 109.601C893.835 93.0107 888.432 76.5056 882.16 60.5418C881.855 59.7614 882.239 58.8771 883.019 58.5718C883.8 58.2635 884.684 58.6474 884.989 59.4309C891.305 75.5049 896.746 92.1233 901.157 108.827C901.371 109.639 900.887 110.469 900.075 110.683C899.946 110.715 899.817 110.734 899.688 110.734Z" fill="#F1EFFB"/>
<path d="M29.6056 113.506C29.4797 113.506 29.3538 113.49 29.2248 113.459C28.4129 113.251 27.922 112.42 28.1329 111.609C32.6202 94.172 38.2216 76.8204 44.7859 60.0447C45.0911 59.2611 45.9754 58.8772 46.7558 59.1824C47.5362 59.4877 47.9233 60.3688 47.618 61.1523C41.0978 77.8148 35.5342 95.0468 31.0783 112.367C30.8989 113.05 30.2822 113.506 29.6056 113.506Z" fill="#F1EFFB"/>
<path d="M907.794 96.9445C907.136 96.9445 906.529 96.5134 906.337 95.8495C903.165 84.93 899.533 73.9884 895.54 63.3207C895.247 62.534 895.644 61.6592 896.43 61.3634C897.214 61.0707 898.092 61.4672 898.388 62.2539C902.403 72.9909 906.06 84.0079 909.254 94.9998C909.49 95.8054 909.024 96.6487 908.218 96.8848C908.077 96.9257 907.935 96.9445 907.794 96.9445Z" fill="#F1EFFB"/>
<path d="M17.5187 114.406C17.3959 114.406 17.2732 114.39 17.1505 114.362C16.3355 114.161 15.8383 113.336 16.0428 112.521C20.4452 94.7888 25.9679 77.1382 32.4567 60.0604C32.7556 59.2768 33.6336 58.8803 34.4171 59.1793C35.2007 59.4782 35.5972 60.3562 35.2982 61.1398C28.8504 78.1043 23.3655 95.6384 18.9914 113.254C18.8183 113.944 18.1984 114.406 17.5187 114.406Z" fill="#F1EFFB"/>
<path d="M920.589 99.9308C919.922 99.9308 919.311 99.4871 919.125 98.8137C915.642 86.1791 911.573 73.5383 907.032 61.2405C906.743 60.4538 907.142 59.579 907.932 59.2895C908.722 59 909.594 59.3996 909.883 60.1895C914.452 72.566 918.546 85.2917 922.055 98.0081C922.279 98.8168 921.803 99.6539 920.995 99.8773C920.859 99.9119 920.724 99.9308 920.589 99.9308Z" fill="#F1EFFB"/>
<path d="M3.95601 121.801C3.84587 121.801 3.73259 121.788 3.62245 121.763C2.80428 121.581 2.2882 120.766 2.47386 119.948C7.02102 99.7166 12.9654 79.6021 20.1433 60.1579C20.4359 59.3712 21.3108 58.9684 22.0943 59.2579C22.881 59.5474 23.2838 60.4222 22.9943 61.2089C15.8636 80.5273 9.95701 100.513 5.43817 120.612C5.27768 121.32 4.65146 121.801 3.95601 121.801Z" fill="#F1EFFB"/>
<path d="M930.86 93.9582C930.196 93.9582 929.589 93.5208 929.4 92.8505C926.152 81.3614 922.43 69.8535 918.332 58.6476C918.043 57.8578 918.449 56.9861 919.239 56.6997C920.025 56.4102 920.9 56.8162 921.187 57.606C925.309 68.8843 929.057 80.4646 932.326 92.026C932.556 92.8348 932.084 93.675 931.278 93.9015C931.137 93.9393 930.998 93.9582 930.86 93.9582Z" fill="#F1EFFB"/>
<path d="M2.02055 84.2093C1.87264 84.2093 1.72474 84.1873 1.57684 84.1432C0.774401 83.8978 0.321258 83.0481 0.566711 82.2457C3.17858 73.7021 6.06422 65.1207 9.14811 56.7344C9.43761 55.9477 10.3124 55.5417 11.0991 55.8312C11.8858 56.1208 12.2918 56.9956 12.0023 57.7823C8.93727 66.1151 6.07051 74.643 3.47438 83.1331C3.27298 83.7876 2.67194 84.2093 2.02055 84.2093Z" fill="#F1EFFB"/>
<path d="M942.132 91.5601C941.468 91.5601 940.858 91.1227 940.669 90.4493C938.117 81.3612 935.259 72.2228 932.179 63.2796C931.905 62.4866 932.327 61.6212 933.12 61.3474C933.909 61.0705 934.778 61.4953 935.052 62.2883C938.151 71.2851 941.028 80.4833 943.595 89.6248C943.822 90.4335 943.35 91.2737 942.541 91.5003C942.406 91.5412 942.267 91.5601 942.132 91.5601Z" fill="#F1EFFB"/>
</svg>
